<?xml version="1.0" encoding="UTF-8" standalone="no"?>
<!DOCTYPE svg PUBLIC "-//W3C//DTD SVG 1.1//EN"
 "http://www.w3.org/Graphics/SVG/1.1/DTD/svg11.dtd">
<!-- Generated by graphviz version 2.34.0 (20140129.0153)
 -->
<!-- Title: rank Pages: 1 -->
<svg width="292pt" height="292pt"
 viewBox="0.00 0.00 292.00 292.00" xmlns="http://www.w3.org/2000/svg" xmlns:xlink="http://www.w3.org/1999/xlink">
<g id="0" class="graph" transform="scale(1 1) rotate(0) translate(4 288)">
<title>rank</title>
<polygon fill="white" stroke="white" points="-4,4 -4,-288 288,-288 288,4 -4,4"/>
<g id="1" class="cluster"><title>cluster_1</title>
<polygon fill="none" stroke="black" points="108,-164 108,-240 194,-240 194,-164 108,-164"/>
<text text-anchor="middle" x="151" y="-222" font-family="Helvetica,sans-Serif" font-size="14.00">Web</text>
</g>
<g id="2" class="cluster"><title>cluster_2</title>
<polygon fill="none" stroke="black" points="38,-8 38,-156 219,-156 219,-8 38,-8"/>
<text text-anchor="middle" x="128.5" y="-138" font-family="Helvetica,sans-Serif" font-size="14.00">App</text>
</g>
<!-- 0 -->
<g id="0" class="node"><title>0</title>
<g id="a_0"><a xlink:title="WebLB">
<polygon fill="none" stroke="black" points="186,-208 116,-208 116,-172 186,-172 186,-208"/>
<text text-anchor="start" x="128.168" y="-183.9" font-family="Helvetica,sans-Serif" font-size="14.00">WebLB</text>
</a>
</g>
</g>
<!-- 1 -->
<g id="1" class="node"><title>1</title>
<g id="a_1"><a xlink:title="AppLB">
<polygon fill="none" stroke="black" points="161.25,-124 94.75,-124 94.75,-88 161.25,-88 161.25,-124"/>
<text text-anchor="start" x="107.483" y="-99.9" font-family="Helvetica,sans-Serif" font-size="14.00">AppLB</text>
</a>
</g>
</g>
<!-- 0&#45;&gt;1 -->
<g id="3" class="edge"><title>0&#45;&gt;1</title>
<path fill="none" stroke="black" d="M146.122,-171.61C143.052,-160.665 139.027,-146.315 135.55,-133.919"/>
<polygon fill="black" stroke="black" points="138.862,-132.767 132.792,-124.084 132.123,-134.658 138.862,-132.767"/>
</g>
<!-- 2 -->
<g id="2" class="node"><title>2</title>
<g id="a_2"><a xlink:title="App001">
<polygon fill="none" stroke="black" points="119.25,-52 46.75,-52 46.75,-16 119.25,-16 119.25,-52"/>
<text text-anchor="start" x="59.3657" y="-27.9" font-family="Helvetica,sans-Serif" font-size="14.00">App001</text>
</a>
</g>
</g>
<!-- 1&#45;&gt;2 -->
<g id="4" class="edge"><title>1&#45;&gt;2</title>
<path fill="none" stroke="black" d="M110.961,-87.6966C104.953,-79.6436 98.4754,-69.8945 93.1562,-60.9824"/>
<polygon fill="black" stroke="black" points="96.0905,-59.0622 88.1006,-52.1043 90.0076,-62.5261 96.0905,-59.0622"/>
</g>
<!-- 1&#45;&gt;2 -->
<g id="5" class="edge"><title>1&#45;&gt;2</title>
<path fill="none" stroke="black" d="M122.792,-87.6966C118.354,-79.4741 112.133,-69.4832 105.862,-60.4207"/>
<polygon fill="black" stroke="black" points="108.566,-58.186 99.8907,-52.1043 102.88,-62.2687 108.566,-58.186"/>
</g>
<!-- 3 -->
<g id="3" class="node"><title>3</title>
<g id="a_3"><a xlink:title="App002">
<polygon fill="none" stroke="black" points="210.25,-52 137.75,-52 137.75,-16 210.25,-16 210.25,-52"/>
<text text-anchor="start" x="150.366" y="-27.9" font-family="Helvetica,sans-Serif" font-size="14.00">App002</text>
</a>
</g>
</g>
<!-- 1&#45;&gt;3 -->
<g id="6" class="edge"><title>1&#45;&gt;3</title>
<path fill="none" stroke="black" d="M133.455,-87.6966C138.01,-79.4741 144.374,-69.4832 150.775,-60.4207"/>
<polygon fill="black" stroke="black" points="153.781,-62.2403 156.865,-52.1043 148.133,-58.1045 153.781,-62.2403"/>
</g>
<!-- 1&#45;&gt;3 -->
<g id="7" class="edge"><title>1&#45;&gt;3</title>
<path fill="none" stroke="black" d="M145.287,-87.6966C151.409,-79.6436 158.026,-69.8945 163.473,-60.9824"/>
<polygon fill="black" stroke="black" points="166.636,-62.5051 168.655,-52.1043 160.591,-58.9762 166.636,-62.5051"/>
</g>
<!-- 6 -->
<!-- 7 -->
<!-- 6&#45;&gt;7 -->
<!-- 8 -->
<!-- 7&#45;&gt;8 -->
<!-- 9 -->
<!-- 8&#45;&gt;9 -->
<!-- 4 -->
<g id="4" class="node"><title>4</title>
<g id="a_4"><a xlink:title="Browser">
<polygon fill="none" stroke="black" points="189,-284 113,-284 113,-248 189,-248 189,-284"/>
<text text-anchor="start" x="125.328" y="-259.9" font-family="Helvetica,sans-Serif" font-size="14.00">Browser</text>
</a>
</g>
</g>
<!-- 4&#45;&gt;0 -->
<g id="0" class="edge"><title>4&#45;&gt;0</title>
<path fill="none" stroke="black" d="M145.199,-247.837C144.267,-239.058 144.022,-228.163 144.462,-218.267"/>
<polygon fill="black" stroke="black" points="147.969,-218.299 145.209,-208.07 140.988,-217.787 147.969,-218.299"/>
</g>
<!-- 4&#45;&gt;0 -->
<g id="1" class="edge"><title>4&#45;&gt;0</title>
<path fill="none" stroke="black" d="M156.801,-247.837C157.733,-239.058 157.978,-228.163 157.538,-218.267"/>
<polygon fill="black" stroke="black" points="161.012,-217.787 156.791,-208.07 154.031,-218.299 161.012,-217.787"/>
</g>
<!-- 5 -->
<g id="5" class="node"><title>5</title>
<g id="a_5"><a xlink:title="Mail Server">
<polygon fill="none" stroke="black" points="94.25,-284 -0.25,-284 -0.25,-248 94.25,-248 94.25,-284"/>
<text text-anchor="start" x="12.1035" y="-259.9" font-family="Helvetica,sans-Serif" font-size="14.00">Mail Server</text>
</a>
</g>
</g>
<!-- 5&#45;&gt;1 -->
<g id="2" class="edge"><title>5&#45;&gt;1</title>
<path fill="none" stroke="black" d="M55.8226,-247.79C70.0038,-220.128 97.9612,-165.594 114.612,-133.115"/>
<polygon fill="black" stroke="black" points="117.741,-134.684 119.188,-124.188 111.512,-131.49 117.741,-134.684"/>
</g>
</g>
</svg>
