<?xml version="1.0" encoding="UTF-8" standalone="no"?>
<!DOCTYPE svg PUBLIC "-//W3C//DTD SVG 1.1//EN"
 "http://www.w3.org/Graphics/SVG/1.1/DTD/svg11.dtd">
<!-- Generated by graphviz version 2.34.0 (20140129.0153)
 -->
<!-- Title: rank Pages: 1 -->
<svg width="286pt" height="292pt"
 viewBox="0.00 0.00 286.00 292.00" xmlns="http://www.w3.org/2000/svg" xmlns:xlink="http://www.w3.org/1999/xlink">
<g id="0" class="graph" transform="scale(1 1) rotate(0) translate(4 288)">
<title>rank</title>
<polygon fill="white" stroke="white" points="-4,4 -4,-288 282,-288 282,4 -4,4"/>
<g id="1" class="cluster"><title>cluster_1</title>
<polygon fill="none" stroke="black" points="105,-164 105,-240 191,-240 191,-164 105,-164"/>
<text text-anchor="middle" x="148" y="-222" font-family="Helvetica,sans-Serif" font-size="14.00">Web</text>
</g>
<g id="2" class="cluster"><title>cluster_2</title>
<polygon fill="none" stroke="black" points="33,-8 33,-156 214,-156 214,-8 33,-8"/>
<text text-anchor="middle" x="123.5" y="-138" font-family="Helvetica,sans-Serif" font-size="14.00">App</text>
</g>
<!-- 0 -->
<g id="0" class="node"><title>0</title>
<g id="a_0"><a xlink:title="WebLB">
<polygon fill="none" stroke="black" points="183,-208 113,-208 113,-172 183,-172 183,-208"/>
<text text-anchor="start" x="125.168" y="-183.9" font-family="Helvetica,sans-Serif" font-size="14.00">WebLB</text>
</a>
</g>
</g>
<!-- 1 -->
<g id="1" class="node"><title>1</title>
<g id="a_1"><a xlink:title="AppLB">
<polygon fill="none" stroke="black" points="146.25,-124 79.75,-124 79.75,-88 146.25,-88 146.25,-124"/>
<text text-anchor="start" x="92.4829" y="-99.9" font-family="Helvetica,sans-Serif" font-size="14.00">AppLB</text>
</a>
</g>
</g>
<!-- 0&#45;&gt;1 -->
<g id="3" class="edge"><title>0&#45;&gt;1</title>
<path fill="none" stroke="black" d="M140.577,-171.61C135.859,-160.555 129.658,-146.027 124.331,-133.548"/>
<polygon fill="black" stroke="black" points="127.437,-131.907 120.292,-124.084 120.999,-134.655 127.437,-131.907"/>
</g>
<!-- 2 -->
<g id="2" class="node"><title>2</title>
<g id="a_2"><a xlink:title="App001">
<polygon fill="none" stroke="black" points="114.25,-52 41.75,-52 41.75,-16 114.25,-16 114.25,-52"/>
<text text-anchor="start" x="54.3657" y="-27.9" font-family="Helvetica,sans-Serif" font-size="14.00">App001</text>
</a>
</g>
</g>
<!-- 1&#45;&gt;2 -->
<g id="4" class="edge"><title>1&#45;&gt;2</title>
<path fill="none" stroke="black" d="M98.4326,-87.6966C93.6777,-79.8132 88.7045,-70.3042 84.7013,-61.5464"/>
<polygon fill="black" stroke="black" points="87.8117,-59.9186 80.6571,-52.1043 81.3771,-62.6747 87.8117,-59.9186"/>
</g>
<!-- 1&#45;&gt;2 -->
<g id="5" class="edge"><title>1&#45;&gt;2</title>
<path fill="none" stroke="black" d="M110.264,-87.6966C107.068,-79.6436 102.404,-69.8945 97.538,-60.9824"/>
<polygon fill="black" stroke="black" points="100.458,-59.0383 92.4472,-52.1043 94.3854,-62.5204 100.458,-59.0383"/>
</g>
<!-- 3 -->
<g id="3" class="node"><title>3</title>
<g id="a_3"><a xlink:title="App002">
<polygon fill="none" stroke="black" points="205.25,-52 132.75,-52 132.75,-16 205.25,-16 205.25,-52"/>
<text text-anchor="start" x="145.366" y="-27.9" font-family="Helvetica,sans-Serif" font-size="14.00">App002</text>
</a>
</g>
</g>
<!-- 1&#45;&gt;3 -->
<g id="6" class="edge"><title>1&#45;&gt;3</title>
<path fill="none" stroke="black" d="M120.927,-87.6966C126.775,-79.3046 134.77,-69.0705 142.619,-59.8613"/>
<polygon fill="black" stroke="black" points="145.46,-61.9306 149.422,-52.1043 140.197,-57.3153 145.46,-61.9306"/>
</g>
<!-- 1&#45;&gt;3 -->
<g id="7" class="edge"><title>1&#45;&gt;3</title>
<path fill="none" stroke="black" d="M132.758,-87.6966C140.185,-79.4741 148.379,-69.4832 155.184,-60.4207"/>
<polygon fill="black" stroke="black" points="158.177,-62.2552 161.212,-52.1043 152.509,-58.147 158.177,-62.2552"/>
</g>
<!-- 6 -->
<!-- 7 -->
<!-- 6&#45;&gt;7 -->
<!-- 8 -->
<!-- 7&#45;&gt;8 -->
<!-- 4 -->
<g id="4" class="node"><title>4</title>
<g id="a_4"><a xlink:title="Browser">
<polygon fill="none" stroke="black" points="186,-284 110,-284 110,-248 186,-248 186,-284"/>
<text text-anchor="start" x="122.328" y="-259.9" font-family="Helvetica,sans-Serif" font-size="14.00">Browser</text>
</a>
</g>
</g>
<!-- 4&#45;&gt;0 -->
<g id="0" class="edge"><title>4&#45;&gt;0</title>
<path fill="none" stroke="black" d="M142.199,-247.837C141.267,-239.058 141.022,-228.163 141.462,-218.267"/>
<polygon fill="black" stroke="black" points="144.969,-218.299 142.209,-208.07 137.988,-217.787 144.969,-218.299"/>
</g>
<!-- 4&#45;&gt;0 -->
<g id="1" class="edge"><title>4&#45;&gt;0</title>
<path fill="none" stroke="black" d="M153.801,-247.837C154.733,-239.058 154.978,-228.163 154.538,-218.267"/>
<polygon fill="black" stroke="black" points="158.012,-217.787 153.791,-208.07 151.031,-218.299 158.012,-217.787"/>
</g>
<!-- 5 -->
<g id="5" class="node"><title>5</title>
<g id="a_5"><a xlink:title="Mail Server">
<polygon fill="none" stroke="black" points="94.25,-208 -0.25,-208 -0.25,-172 94.25,-172 94.25,-208"/>
<text text-anchor="start" x="12.1035" y="-183.9" font-family="Helvetica,sans-Serif" font-size="14.00">Mail Server</text>
</a>
</g>
</g>
<!-- 5&#45;&gt;1 -->
<g id="2" class="edge"><title>5&#45;&gt;1</title>
<path fill="none" stroke="black" d="M60.9969,-171.61C70.2468,-160.118 82.5185,-144.871 92.8178,-132.075"/>
<polygon fill="black" stroke="black" points="95.706,-134.069 99.2496,-124.084 90.2529,-129.679 95.706,-134.069"/>
</g>
</g>
</svg>
