<?xml version="1.0" encoding="UTF-8" standalone="no"?>
<!DOCTYPE svg PUBLIC "-//W3C//DTD SVG 1.1//EN"
 "http://www.w3.org/Graphics/SVG/1.1/DTD/svg11.dtd">
<!-- Generated by graphviz version 2.34.0 (20140129.0153)
 -->
<!-- Title: simple Pages: 1 -->
<svg width="344pt" height="346pt"
 viewBox="0.00 0.00 344.00 346.00" xmlns="http://www.w3.org/2000/svg" xmlns:xlink="http://www.w3.org/1999/xlink">
<g id="graph0" class="graph" transform="scale(1 1) rotate(0) translate(4 342)">
<title>simple</title>
<polygon fill="white" stroke="white" points="-4,4 -4,-342 340,-342 340,4 -4,4"/>
<g id="clust1" class="cluster"><title>cluster0</title>
<polygon fill="none" stroke="black" points="8,-228 8,-330 286,-330 286,-228 8,-228"/>
<text text-anchor="middle" x="147" y="-312" font-family="Times,serif" font-size="14.00">Web</text>
</g>
<g id="clust2" class="cluster"><title>cluster1</title>
<polygon fill="none" stroke="black" points="67,-118 67,-220 328,-220 328,-118 67,-118"/>
<text text-anchor="middle" x="197.5" y="-202" font-family="Times,serif" font-size="14.00">App</text>
</g>
<g id="clust3" class="cluster"><title>cluster2</title>
<polygon fill="none" stroke="black" points="147,-8 147,-110 245,-110 245,-8 147,-8"/>
<text text-anchor="middle" x="196" y="-92" font-family="Times,serif" font-size="14.00">DB</text>
</g>
<!-- 0 -->
<g id="node1" class="node"><title>0</title>
<polygon fill="none" stroke="black" points="214,-267 214,-290 267,-290 267,-267 214,-267"/>
<text text-anchor="start" x="221.253" y="-272.9" font-family="Times,serif" font-size="14.00"> 80/tcp</text>
<polygon fill="none" stroke="black" points="214,-243 214,-265 267,-265 267,-243 214,-243"/>
<text text-anchor="start" x="217.343" y="-248" font-family="Times,serif" font-size="14.00">Web001</text>
<polygon fill="none" stroke="black" points="210.5,-240.5 210.5,-293.5 269.5,-293.5 269.5,-240.5 210.5,-240.5"/>
</g>
<!-- 3 -->
<g id="node4" class="node"><title>3</title>
<polygon fill="none" stroke="black" points="218,-157 218,-180 263,-180 263,-157 218,-157"/>
<text text-anchor="start" x="221.253" y="-162.9" font-family="Times,serif" font-size="14.00"> 80/tcp</text>
<polygon fill="none" stroke="black" points="265,-157 265,-180 309,-180 309,-157 265,-157"/>
<text text-anchor="start" x="267.753" y="-162.9" font-family="Times,serif" font-size="14.00"> 25/tcp</text>
<polygon fill="none" stroke="black" points="218,-133 218,-155 309,-155 309,-133 218,-133"/>
<text text-anchor="start" x="240.945" y="-138" font-family="Times,serif" font-size="14.00">App001</text>
<polygon fill="none" stroke="black" points="214.5,-130.5 214.5,-183.5 311.5,-183.5 311.5,-130.5 214.5,-130.5"/>
</g>
<!-- 0&#45;&gt;3 -->
<g id="edge1" class="edge"><title>0&#45;&gt;3:p80tcp</title>
<path fill="none" stroke="black" d="M240,-236.497C240,-223.082 240,-206.744 240,-191.123"/>
<polygon fill="black" stroke="black" points="243.5,-191 240,-181 236.5,-191 243.5,-191"/>
</g>
<!-- 1 -->
<g id="node2" class="node"><title>1</title>
<polygon fill="none" stroke="black" points="121,-267 121,-290 174,-290 174,-267 121,-267"/>
<text text-anchor="start" x="128.253" y="-272.9" font-family="Times,serif" font-size="14.00"> 80/tcp</text>
<polygon fill="none" stroke="black" points="121,-243 121,-265 174,-265 174,-243 121,-243"/>
<text text-anchor="start" x="124.343" y="-248" font-family="Times,serif" font-size="14.00">Web002</text>
<polygon fill="none" stroke="black" points="117.5,-240.5 117.5,-293.5 176.5,-293.5 176.5,-240.5 117.5,-240.5"/>
</g>
<!-- 4 -->
<g id="node5" class="node"><title>4</title>
<polygon fill="none" stroke="black" points="87,-157 87,-180 132,-180 132,-157 87,-157"/>
<text text-anchor="start" x="90.2534" y="-162.9" font-family="Times,serif" font-size="14.00"> 80/tcp</text>
<polygon fill="none" stroke="black" points="134,-157 134,-180 178,-180 178,-157 134,-157"/>
<text text-anchor="start" x="136.753" y="-162.9" font-family="Times,serif" font-size="14.00"> 25/tcp</text>
<polygon fill="none" stroke="black" points="87,-133 87,-155 178,-155 178,-133 87,-133"/>
<text text-anchor="start" x="109.945" y="-138" font-family="Times,serif" font-size="14.00">App002</text>
<polygon fill="none" stroke="black" points="83.5,-130.5 83.5,-183.5 180.5,-183.5 180.5,-130.5 83.5,-130.5"/>
</g>
<!-- 1&#45;&gt;4 -->
<g id="edge2" class="edge"><title>1&#45;&gt;4:p80tcp</title>
<path fill="none" stroke="black" d="M126.443,-236.335C119.028,-223.319 111.932,-207.326 109.712,-191.105"/>
<polygon fill="black" stroke="black" points="113.194,-190.729 109,-181 106.211,-191.221 113.194,-190.729"/>
</g>
<!-- 2 -->
<g id="node3" class="node"><title>2</title>
<polygon fill="none" stroke="black" points="28,-267 28,-290 81,-290 81,-267 28,-267"/>
<text text-anchor="start" x="35.2534" y="-272.9" font-family="Times,serif" font-size="14.00"> 80/tcp</text>
<polygon fill="none" stroke="black" points="28,-243 28,-265 81,-265 81,-243 28,-243"/>
<text text-anchor="start" x="31.3433" y="-248" font-family="Times,serif" font-size="14.00">Web003</text>
<polygon fill="none" stroke="black" points="24.5,-240.5 24.5,-293.5 83.5,-293.5 83.5,-240.5 24.5,-240.5"/>
</g>
<!-- 2&#45;&gt;4 -->
<g id="edge3" class="edge"><title>2&#45;&gt;4:p80tcp</title>
<path fill="none" stroke="black" d="M85.0362,-236.223C95.465,-223.57 105.204,-207.852 108.119,-191.023"/>
<polygon fill="black" stroke="black" points="111.611,-191.268 109,-181 104.637,-190.655 111.611,-191.268"/>
</g>
<!-- 5 -->
<g id="node6" class="node"><title>5</title>
<polygon fill="none" stroke="black" points="167,-47 167,-70 226,-70 226,-47 167,-47"/>
<text text-anchor="start" x="170.253" y="-52.9" font-family="Times,serif" font-size="14.00"> 3306/tcp</text>
<polygon fill="none" stroke="black" points="167,-23 167,-45 226,-45 226,-23 167,-23"/>
<text text-anchor="start" x="176.276" y="-28" font-family="Times,serif" font-size="14.00">DB001</text>
<polygon fill="none" stroke="black" points="163.5,-20.5 163.5,-73.5 228.5,-73.5 228.5,-20.5 163.5,-20.5"/>
</g>
<!-- 3&#45;&gt;5 -->
<g id="edge4" class="edge"><title>3&#45;&gt;5:p3306tcp</title>
<path fill="none" stroke="black" d="M263.773,-126.37C262.91,-101.41 257.682,-68.5497 236.894,-60.7248"/>
<polygon fill="black" stroke="black" points="237.453,-57.2694 227,-59 236.25,-64.1654 237.453,-57.2694"/>
</g>
<!-- 4&#45;&gt;5 -->
<g id="edge5" class="edge"><title>4&#45;&gt;5:p3306tcp</title>
<path fill="none" stroke="black" d="M130.693,-126.37C131.095,-101.521 135.652,-68.843 155.928,-60.8311"/>
<polygon fill="black" stroke="black" points="156.787,-64.2323 166,-59 155.535,-57.3452 156.787,-64.2323"/>
</g>
</g>
</svg>
