<?xml version="1.0" encoding="UTF-8" standalone="no"?>
<!DOCTYPE svg PUBLIC "-//W3C//DTD SVG 1.1//EN"
 "http://www.w3.org/Graphics/SVG/1.1/DTD/svg11.dtd">
<!-- Generated by graphviz version 2.34.0 (20140129.0153)
 -->
<!-- Title: simple Pages: 1 -->
<svg width="624pt" height="572pt"
 viewBox="0.00 0.00 624.18 572.00" xmlns="http://www.w3.org/2000/svg" xmlns:xlink="http://www.w3.org/1999/xlink">
<g id="graph0" class="graph" transform="scale(1 1) rotate(0) translate(4 568)">
<title>simple</title>
<polygon fill="white" stroke="white" points="-4,4 -4,-568 620.176,-568 620.176,4 -4,4"/>
<g id="clust1" class="cluster"><title>cluster_Web</title>
<polygon fill="none" stroke="black" points="104,-314 104,-518 382,-518 382,-314 104,-314"/>
<text text-anchor="middle" x="243" y="-500" font-family="Times,serif" font-size="14.00">Web</text>
</g>
<g id="clust2" class="cluster"><title>cluster_App</title>
<polygon fill="none" stroke="black" points="390,-118 390,-416 580,-416 580,-118 390,-118"/>
<text text-anchor="middle" x="485" y="-398" font-family="Times,serif" font-size="14.00">App</text>
</g>
<g id="clust3" class="cluster"><title>cluster_DB</title>
<polygon fill="none" stroke="black" points="458,-8 458,-110 556,-110 556,-8 458,-8"/>
<text text-anchor="middle" x="507" y="-92" font-family="Times,serif" font-size="14.00">DB</text>
</g>
<!-- 1 -->
<g id="node1" class="node"><title>1</title>
<polygon fill="none" stroke="black" points="124,-353 124,-376 177,-376 177,-353 124,-353"/>
<text text-anchor="start" x="131.253" y="-358.9" font-family="Times,serif" font-size="14.00"> 80/tcp</text>
<polygon fill="none" stroke="black" points="124,-329 124,-351 177,-351 177,-329 124,-329"/>
<text text-anchor="start" x="127.343" y="-334" font-family="Times,serif" font-size="14.00">Web003</text>
<polygon fill="none" stroke="black" points="120.5,-326.5 120.5,-379.5 179.5,-379.5 179.5,-326.5 120.5,-326.5"/>
</g>
<!-- 7 -->
<g id="node7" class="node"><title>7</title>
<polygon fill="none" stroke="black" points="410,-255 410,-278 455,-278 455,-255 410,-255"/>
<text text-anchor="start" x="413.253" y="-260.9" font-family="Times,serif" font-size="14.00"> 80/tcp</text>
<polygon fill="none" stroke="black" points="457,-255 457,-278 515,-278 515,-255 457,-255"/>
<text text-anchor="start" x="459.753" y="-260.9" font-family="Times,serif" font-size="14.00"> 8080/tcp</text>
<polygon fill="none" stroke="black" points="517,-255 517,-278 561,-278 561,-255 517,-255"/>
<text text-anchor="start" x="519.753" y="-260.9" font-family="Times,serif" font-size="14.00"> 25/tcp</text>
<polygon fill="none" stroke="black" points="410,-231 410,-253 561,-253 561,-231 410,-231"/>
<text text-anchor="start" x="464.5" y="-236" font-family="Times,serif" font-size="14.00">AppLB</text>
<polygon fill="none" stroke="black" points="406.5,-228.5 406.5,-281.5 563.5,-281.5 563.5,-228.5 406.5,-228.5"/>
</g>
<!-- 1&#45;&gt;7 -->
<g id="edge11" class="edge"><title>1&#45;&gt;7:p80tcp</title>
<path fill="none" stroke="black" d="M182.116,-322.379C186.57,-319.217 191.252,-316.316 196,-314 279.983,-273.036 309.89,-267.375 398.752,-267.019"/>
<polygon fill="black" stroke="black" points="399.007,-270.519 409,-267 398.993,-263.519 399.007,-270.519"/>
</g>
<!-- 2 -->
<g id="node2" class="node"><title>2</title>
<polygon fill="none" stroke="black" points="217,-353 217,-376 270,-376 270,-353 217,-353"/>
<text text-anchor="start" x="224.253" y="-358.9" font-family="Times,serif" font-size="14.00"> 80/tcp</text>
<polygon fill="none" stroke="black" points="217,-329 217,-351 270,-351 270,-329 217,-329"/>
<text text-anchor="start" x="220.343" y="-334" font-family="Times,serif" font-size="14.00">Web002</text>
<polygon fill="none" stroke="black" points="213.5,-326.5 213.5,-379.5 272.5,-379.5 272.5,-326.5 213.5,-326.5"/>
</g>
<!-- 2&#45;&gt;7 -->
<g id="edge8" class="edge"><title>2&#45;&gt;7:p80tcp</title>
<path fill="none" stroke="black" d="M277.312,-322.271C307.015,-299.435 352.394,-271.176 398.779,-267.419"/>
<polygon fill="black" stroke="black" points="399.152,-270.907 409,-267 398.865,-263.913 399.152,-270.907"/>
</g>
<!-- 2&#45;&gt;7 -->
<g id="edge10" class="edge"><title>2&#45;&gt;7:p8080tcp</title>
<path fill="none" stroke="black" d="M274.763,-322.374C279.31,-319.171 284.111,-316.261 289,-314 326.047,-296.869 461.083,-319.164 482.988,-288.543"/>
<polygon fill="black" stroke="black" points="486.328,-289.59 486,-279 479.653,-287.483 486.328,-289.59"/>
</g>
<!-- 3 -->
<g id="node3" class="node"><title>3</title>
<polygon fill="none" stroke="black" points="310,-353 310,-376 363,-376 363,-353 310,-353"/>
<text text-anchor="start" x="317.253" y="-358.9" font-family="Times,serif" font-size="14.00"> 80/tcp</text>
<polygon fill="none" stroke="black" points="310,-329 310,-351 363,-351 363,-329 310,-329"/>
<text text-anchor="start" x="313.343" y="-334" font-family="Times,serif" font-size="14.00">Web001</text>
<polygon fill="none" stroke="black" points="306.5,-326.5 306.5,-379.5 365.5,-379.5 365.5,-326.5 306.5,-326.5"/>
</g>
<!-- 3&#45;&gt;7 -->
<g id="edge7" class="edge"><title>3&#45;&gt;7:p80tcp</title>
<path fill="none" stroke="black" d="M347.265,-322.271C357.37,-300.632 374.4,-274.123 398.864,-268.208"/>
<polygon fill="black" stroke="black" points="399.484,-271.659 409,-267 398.656,-264.708 399.484,-271.659"/>
</g>
<!-- 3&#45;&gt;7 -->
<g id="edge9" class="edge"><title>3&#45;&gt;7:p8080tcp</title>
<path fill="none" stroke="black" d="M372.257,-322.415C376.752,-319.363 381.39,-316.478 386,-314 424.072,-293.532 476.513,-320.828 484.86,-289.02"/>
<polygon fill="black" stroke="black" points="488.347,-289.332 486,-279 481.392,-288.54 488.347,-289.332"/>
</g>
<!-- 4 -->
<g id="node4" class="node"><title>4</title>
<polygon fill="none" stroke="black" points="195,-455 195,-478 240,-478 240,-455 195,-455"/>
<text text-anchor="start" x="198.253" y="-460.9" font-family="Times,serif" font-size="14.00"> 80/tcp</text>
<polygon fill="none" stroke="black" points="242,-455 242,-478 293,-478 293,-455 242,-455"/>
<text text-anchor="start" x="244.753" y="-460.9" font-family="Times,serif" font-size="14.00"> 443/tcp</text>
<polygon fill="none" stroke="black" points="195,-431 195,-453 293,-453 293,-431 195,-431"/>
<text text-anchor="start" x="222.398" y="-436" font-family="Times,serif" font-size="14.00">WebLB</text>
<polygon fill="none" stroke="black" points="192,-428.5 192,-481.5 296,-481.5 296,-428.5 192,-428.5"/>
</g>
<!-- 4&#45;&gt;1 -->
<g id="edge6" class="edge"><title>4&#45;&gt;1:p80tcp</title>
<path fill="none" stroke="black" d="M203.054,-424.467C200.49,-421.771 198.1,-418.941 196,-416 184.758,-400.26 195.518,-376.828 187.625,-368.275"/>
<polygon fill="black" stroke="black" points="188.594,-364.908 178,-365 186.339,-371.535 188.594,-364.908"/>
</g>
<!-- 4&#45;&gt;2 -->
<g id="edge5" class="edge"><title>4&#45;&gt;2:p80tcp</title>
<path fill="none" stroke="black" d="M244,-424.383C244,-413.088 244,-399.854 244,-387.09"/>
<polygon fill="black" stroke="black" points="247.5,-387 244,-377 240.5,-387 247.5,-387"/>
</g>
<!-- 4&#45;&gt;3 -->
<g id="edge4" class="edge"><title>4&#45;&gt;3:p80tcp</title>
<path fill="none" stroke="black" d="M282.262,-424.209C284.695,-421.572 286.975,-418.826 289,-416 300.52,-399.918 290.45,-376.301 299.328,-368.01"/>
<polygon fill="black" stroke="black" points="300.492,-371.314 309,-365 298.412,-364.63 300.492,-371.314"/>
</g>
<!-- 5 -->
<g id="node5" class="node"><title>5</title>
<polygon fill="none" stroke="black" points="410,-353 410,-376 455,-376 455,-353 410,-353"/>
<text text-anchor="start" x="413.253" y="-358.9" font-family="Times,serif" font-size="14.00"> 80/tcp</text>
<polygon fill="none" stroke="black" points="457,-353 457,-376 515,-376 515,-353 457,-353"/>
<text text-anchor="start" x="459.753" y="-358.9" font-family="Times,serif" font-size="14.00"> 8080/tcp</text>
<polygon fill="none" stroke="black" points="517,-353 517,-376 561,-376 561,-353 517,-353"/>
<text text-anchor="start" x="519.753" y="-358.9" font-family="Times,serif" font-size="14.00"> 25/tcp</text>
<polygon fill="none" stroke="black" points="410,-329 410,-351 561,-351 561,-329 410,-329"/>
<text text-anchor="start" x="462.945" y="-334" font-family="Times,serif" font-size="14.00">App002</text>
<polygon fill="none" stroke="black" points="406.5,-326.5 406.5,-379.5 563.5,-379.5 563.5,-326.5 406.5,-326.5"/>
</g>
<!-- 5&#45;&gt;7 -->
<g id="edge13" class="edge"><title>5&#45;&gt;7:p8080tcp</title>
<path fill="none" stroke="black" d="M485.593,-322.167C485.758,-312.042 485.909,-300.439 485.971,-289.185"/>
<polygon fill="black" stroke="black" points="489.471,-289.01 486,-279 482.471,-288.99 489.471,-289.01"/>
</g>
<!-- 8 -->
<g id="node8" class="node"><title>8</title>
<polygon fill="none" stroke="black" points="478,-47 478,-70 537,-70 537,-47 478,-47"/>
<text text-anchor="start" x="481.253" y="-52.9" font-family="Times,serif" font-size="14.00"> 3306/tcp</text>
<polygon fill="none" stroke="black" points="478,-23 478,-45 537,-45 537,-23 478,-23"/>
<text text-anchor="start" x="487.276" y="-28" font-family="Times,serif" font-size="14.00">DB001</text>
<polygon fill="none" stroke="black" points="474.5,-20.5 474.5,-73.5 539.5,-73.5 539.5,-20.5 474.5,-20.5"/>
</g>
<!-- 5&#45;&gt;8 -->
<g id="edge21" class="edge"><title>5&#45;&gt;8:p3306tcp</title>
<path fill="none" stroke="black" d="M546.427,-322.202C559.88,-312.609 572.369,-300.593 580,-286 625.918,-198.187 639.668,-68.2495 548.119,-59.4697"/>
<polygon fill="black" stroke="black" points="548.152,-55.9675 538,-59 547.827,-62.96 548.152,-55.9675"/>
</g>
<!-- 6 -->
<g id="node6" class="node"><title>6</title>
<polygon fill="none" stroke="black" points="410,-157 410,-180 455,-180 455,-157 410,-157"/>
<text text-anchor="start" x="413.253" y="-162.9" font-family="Times,serif" font-size="14.00"> 80/tcp</text>
<polygon fill="none" stroke="black" points="457,-157 457,-180 515,-180 515,-157 457,-157"/>
<text text-anchor="start" x="459.753" y="-162.9" font-family="Times,serif" font-size="14.00"> 8080/tcp</text>
<polygon fill="none" stroke="black" points="517,-157 517,-180 561,-180 561,-157 517,-157"/>
<text text-anchor="start" x="519.753" y="-162.9" font-family="Times,serif" font-size="14.00"> 25/tcp</text>
<polygon fill="none" stroke="black" points="410,-133 410,-155 561,-155 561,-133 410,-133"/>
<text text-anchor="start" x="462.945" y="-138" font-family="Times,serif" font-size="14.00">App001</text>
<polygon fill="none" stroke="black" points="406.5,-130.5 406.5,-183.5 563.5,-183.5 563.5,-130.5 406.5,-130.5"/>
</g>
<!-- 6&#45;&gt;7 -->
<g id="edge12" class="edge"><title>6&#45;&gt;7:p8080tcp</title>
<path fill="none" stroke="black" d="M539.383,-187.798C552.067,-197.556 563.925,-209.652 571,-224 581.614,-245.525 587.87,-260.93 571,-278 547.14,-302.142 497.542,-314.207 487.714,-289.01"/>
<polygon fill="black" stroke="black" points="491.137,-288.266 486,-279 484.238,-289.447 491.137,-288.266"/>
</g>
<!-- 6&#45;&gt;8 -->
<g id="edge20" class="edge"><title>6&#45;&gt;8:p3306tcp</title>
<path fill="none" stroke="black" d="M497.173,-126.237C501.699,-113.049 506.085,-96.9813 507.515,-81.253"/>
<polygon fill="black" stroke="black" points="511.024,-81.1542 508,-71 504.032,-80.8235 511.024,-81.1542"/>
</g>
<!-- 7&#45;&gt;5 -->
<g id="edge17" class="edge"><title>7&#45;&gt;5:p25tcp</title>
<path fill="none" stroke="black" d="M539.383,-285.798C552.067,-295.556 563.925,-307.652 571,-322 581.614,-343.525 587.703,-358.766 571,-376 564.346,-382.865 552.188,-387.38 544.926,-385.288"/>
<polygon fill="black" stroke="black" points="547.663,-383.099 539,-377 541.969,-387.17 547.663,-383.099"/>
</g>
<!-- 7&#45;&gt;5 -->
<g id="edge18" class="edge"><title>7&#45;&gt;5:p80tcp</title>
<path fill="none" stroke="black" d="M430.308,-285.741C417.549,-295.499 405.621,-307.609 398.5,-322 387.856,-343.51 381.785,-358.778 398.5,-376 405.632,-383.348 418.792,-388.106 426.32,-385.521"/>
<polygon fill="black" stroke="black" points="429.366,-387.262 432,-377 423.541,-383.38 429.366,-387.262"/>
</g>
<!-- 7&#45;&gt;5 -->
<g id="edge19" class="edge"><title>7&#45;&gt;5:p8080tcp</title>
<path fill="none" stroke="black" d="M539.383,-285.798C552.067,-295.556 563.925,-307.652 571,-322 581.614,-343.525 587.87,-358.93 571,-376 547.14,-400.142 497.542,-412.207 487.714,-387.01"/>
<polygon fill="black" stroke="black" points="491.137,-386.266 486,-377 484.238,-387.447 491.137,-386.266"/>
</g>
<!-- 7&#45;&gt;6 -->
<g id="edge14" class="edge"><title>7&#45;&gt;6:p25tcp</title>
<path fill="none" stroke="black" d="M519.81,-224.342C528.054,-214.782 535.236,-203.433 537.899,-191.093"/>
<polygon fill="black" stroke="black" points="541.395,-191.321 539,-181 534.436,-190.562 541.395,-191.321"/>
</g>
<!-- 7&#45;&gt;6 -->
<g id="edge15" class="edge"><title>7&#45;&gt;6:p80tcp</title>
<path fill="none" stroke="black" d="M450.835,-224.229C442.743,-214.658 435.694,-203.32 433.08,-191.037"/>
<polygon fill="black" stroke="black" points="436.55,-190.568 432,-181 429.59,-191.317 436.55,-190.568"/>
</g>
<!-- 7&#45;&gt;6 -->
<g id="edge16" class="edge"><title>7&#45;&gt;6:p8080tcp</title>
<path fill="none" stroke="black" d="M485.593,-224.167C485.758,-214.042 485.909,-202.439 485.971,-191.185"/>
<polygon fill="black" stroke="black" points="489.471,-191.01 486,-181 482.471,-190.99 489.471,-191.01"/>
</g>
<!-- 9 -->
<g id="node9" class="node"><title>9</title>
<polygon fill="none" stroke="black" points="11,-341 11,-364 84,-364 84,-341 11,-341"/>
<text text-anchor="start" x="14.2603" y="-346.9" font-family="Times,serif" font-size="14.00">Mail Server</text>
<polygon fill="none" stroke="black" points="7.5,-338.5 7.5,-367.5 86.5,-367.5 86.5,-338.5 7.5,-338.5"/>
</g>
<!-- 9&#45;&gt;7 -->
<g id="edge3" class="edge"><title>9&#45;&gt;7:p25tcp</title>
<path fill="none" stroke="black" d="M66.1496,-334.385C75.6279,-326.739 87.6663,-318.513 100,-314 142.901,-298.301 488.329,-324.059 534.017,-287.731"/>
<polygon fill="black" stroke="black" points="537.083,-289.42 539,-279 531.004,-285.95 537.083,-289.42"/>
</g>
<!-- 10 -->
<g id="node10" class="node"><title>10</title>
<polygon fill="none" stroke="black" points="216,-533 216,-556 270,-556 270,-533 216,-533"/>
<text text-anchor="start" x="219.283" y="-538.9" font-family="Times,serif" font-size="14.00">Browser</text>
<polygon fill="none" stroke="black" points="213,-530.5 213,-559.5 273,-559.5 273,-530.5 213,-530.5"/>
</g>
<!-- 10&#45;&gt;4 -->
<g id="edge1" class="edge"><title>10&#45;&gt;4:p80tcp</title>
<path fill="none" stroke="black" d="M231.672,-526.266C226.088,-516.177 220.087,-502.881 217.879,-489.347"/>
<polygon fill="black" stroke="black" points="221.334,-488.668 217,-479 214.359,-489.26 221.334,-488.668"/>
</g>
<!-- 10&#45;&gt;4 -->
<g id="edge2" class="edge"><title>10&#45;&gt;4:p443tcp</title>
<path fill="none" stroke="black" d="M253.747,-526.483C259.2,-516.261 265.106,-502.704 267.205,-488.979"/>
<polygon fill="black" stroke="black" points="270.695,-489.246 268,-479 263.717,-488.691 270.695,-489.246"/>
</g>
</g>
</svg>
