<?xml version="1.0" encoding="UTF-8" standalone="no"?>
<!DOCTYPE svg PUBLIC "-//W3C//DTD SVG 1.1//EN"
 "http://www.w3.org/Graphics/SVG/1.1/DTD/svg11.dtd">
<!-- Generated by graphviz version 2.34.0 (20140129.0153)
 -->
<!-- Title: simple Pages: 1 -->
<svg width="632pt" height="560pt"
 viewBox="0.00 0.00 631.54 560.00" xmlns="http://www.w3.org/2000/svg" xmlns:xlink="http://www.w3.org/1999/xlink">
<g id="graph0" class="graph" transform="scale(1 1) rotate(0) translate(4 556)">
<title>simple</title>
<polygon fill="white" stroke="white" points="-4,4 -4,-556 627.537,-556 627.537,4 -4,4"/>
<g id="clust1" class="cluster"><title>cluster1</title>
<polygon fill="none" stroke="black" points="105,-308 105,-508 391,-508 391,-308 105,-308"/>
<text text-anchor="middle" x="248" y="-490" font-family="Helvetica,sans-Serif" font-size="14.00">Web</text>
</g>
<g id="clust2" class="cluster"><title>cluster3</title>
<polygon fill="none" stroke="black" points="399,-116 399,-408 587,-408 587,-116 399,-116"/>
<text text-anchor="middle" x="493" y="-390" font-family="Helvetica,sans-Serif" font-size="14.00">App</text>
</g>
<g id="clust3" class="cluster"><title>cluster4</title>
<polygon fill="none" stroke="black" points="468,-8 468,-108 564,-108 564,-8 468,-8"/>
<text text-anchor="middle" x="516" y="-90" font-family="Helvetica,sans-Serif" font-size="14.00">DB</text>
</g>
<!-- 3 -->
<g id="node1" class="node"><title>3</title>
<polygon fill="none" stroke="black" points="191,-375.5 113,-375.5 113,-316.5 191,-316.5 191,-375.5"/>
<polygon fill="none" stroke="black" points="123,-346 123,-369 181,-369 181,-346 123,-346"/>
<text text-anchor="start" x="132.931" y="-351.9" font-family="Helvetica,sans-Serif" font-size="14.00">80/tcp</text>
<polygon fill="none" stroke="black" points="123,-322 123,-344 181,-344 181,-322 123,-322"/>
<text text-anchor="start" x="126.051" y="-327" font-family="Helvetica,sans-Serif" font-size="14.00">Web003</text>
</g>
<!-- 9 -->
<g id="node7" class="node"><title>9</title>
<path fill="azure" stroke="black" stroke-dasharray="1,5" d="M567,-279.5C567,-279.5 419,-279.5 419,-279.5 413,-279.5 407,-273.5 407,-267.5 407,-267.5 407,-232.5 407,-232.5 407,-226.5 413,-220.5 419,-220.5 419,-220.5 567,-220.5 567,-220.5 573,-220.5 579,-226.5 579,-232.5 579,-232.5 579,-267.5 579,-267.5 579,-273.5 573,-279.5 567,-279.5"/>
<polygon fill="none" stroke="black" points="417,-250 417,-273 462,-273 462,-250 417,-250"/>
<text text-anchor="start" x="420.431" y="-255.9" font-family="Helvetica,sans-Serif" font-size="14.00">80/tcp</text>
<polygon fill="none" stroke="black" points="464,-250 464,-273 523,-273 523,-250 464,-250"/>
<text text-anchor="start" x="466.645" y="-255.9" font-family="Helvetica,sans-Serif" font-size="14.00">8080/tcp</text>
<polygon fill="none" stroke="black" points="525,-250 525,-273 569,-273 569,-250 525,-250"/>
<text text-anchor="start" x="527.931" y="-255.9" font-family="Helvetica,sans-Serif" font-size="14.00">25/tcp</text>
<polygon fill="none" stroke="black" points="417,-226 417,-248 569,-248 569,-226 417,-226"/>
<text text-anchor="start" x="471.983" y="-231" font-family="Helvetica,sans-Serif" font-size="14.00">AppLB</text>
</g>
<!-- 3&#45;&gt;9 -->
<g id="edge11" class="edge"><title>3&#45;&gt;9:p80tcp</title>
<path fill="none" stroke="blue" d="M185.403,-316.336C190.105,-313.188 195.034,-310.297 200,-308 285.952,-268.241 315.75,-262.382 405.9,-262.019"/>
<polygon fill="blue" stroke="blue" points="406.007,-265.519 416,-262 405.993,-258.519 406.007,-265.519"/>
</g>
<!-- 4 -->
<g id="node2" class="node"><title>4</title>
<polygon fill="none" stroke="black" points="287,-375.5 209,-375.5 209,-316.5 287,-316.5 287,-375.5"/>
<polygon fill="none" stroke="black" points="219,-346 219,-369 277,-369 277,-346 219,-346"/>
<text text-anchor="start" x="228.931" y="-351.9" font-family="Helvetica,sans-Serif" font-size="14.00">80/tcp</text>
<polygon fill="none" stroke="black" points="219,-322 219,-344 277,-344 277,-322 219,-322"/>
<text text-anchor="start" x="222.051" y="-327" font-family="Helvetica,sans-Serif" font-size="14.00">Web002</text>
</g>
<!-- 4&#45;&gt;9 -->
<g id="edge8" class="edge"><title>4&#45;&gt;9:p80tcp</title>
<path fill="none" stroke="blue" d="M282.27,-316.436C312.476,-294.022 358.89,-266.013 405.953,-262.392"/>
<polygon fill="blue" stroke="blue" points="406.144,-265.887 416,-262 405.871,-258.892 406.144,-265.887"/>
</g>
<!-- 4&#45;&gt;9 -->
<g id="edge10" class="edge"><title>4&#45;&gt;9:p8080tcp</title>
<path fill="none" stroke="blue" d="M281.046,-316.327C285.844,-313.139 290.893,-310.24 296,-308 333.53,-291.537 469.005,-314.268 490.979,-283.575"/>
<polygon fill="blue" stroke="blue" points="494.329,-284.59 494,-274 487.653,-282.483 494.329,-284.59"/>
</g>
<!-- 5 -->
<g id="node3" class="node"><title>5</title>
<polygon fill="none" stroke="black" points="383,-375.5 305,-375.5 305,-316.5 383,-316.5 383,-375.5"/>
<polygon fill="none" stroke="black" points="315,-346 315,-369 373,-369 373,-346 315,-346"/>
<text text-anchor="start" x="324.931" y="-351.9" font-family="Helvetica,sans-Serif" font-size="14.00">80/tcp</text>
<polygon fill="none" stroke="black" points="315,-322 315,-344 373,-344 373,-322 315,-322"/>
<text text-anchor="start" x="318.051" y="-327" font-family="Helvetica,sans-Serif" font-size="14.00">Web001</text>
</g>
<!-- 5&#45;&gt;9 -->
<g id="edge7" class="edge"><title>5&#45;&gt;9:p80tcp</title>
<path fill="none" stroke="blue" d="M354.971,-316.436C364.95,-295.241 381.829,-269.043 405.992,-263.194"/>
<polygon fill="blue" stroke="blue" points="406.485,-266.66 416,-262 405.656,-259.71 406.485,-266.66"/>
</g>
<!-- 5&#45;&gt;9 -->
<g id="edge9" class="edge"><title>5&#45;&gt;9:p8080tcp</title>
<path fill="none" stroke="blue" d="M380.781,-316.395C385.44,-313.352 390.244,-310.471 395,-308 432.734,-288.392 484.201,-315.093 492.768,-284.297"/>
<polygon fill="blue" stroke="blue" points="496.287,-284.345 494,-274 489.337,-283.513 496.287,-284.345"/>
</g>
<!-- 6 -->
<g id="node4" class="node"><title>6</title>
<path fill="azure" stroke="black" stroke-dasharray="1,5" d="M295,-475.5C295,-475.5 201,-475.5 201,-475.5 195,-475.5 189,-469.5 189,-463.5 189,-463.5 189,-428.5 189,-428.5 189,-422.5 195,-416.5 201,-416.5 201,-416.5 295,-416.5 295,-416.5 301,-416.5 307,-422.5 307,-428.5 307,-428.5 307,-463.5 307,-463.5 307,-469.5 301,-475.5 295,-475.5"/>
<polygon fill="none" stroke="black" points="199,-446 199,-469 244,-469 244,-446 199,-446"/>
<text text-anchor="start" x="202.431" y="-451.9" font-family="Helvetica,sans-Serif" font-size="14.00">80/tcp</text>
<polygon fill="none" stroke="black" points="246,-446 246,-469 297,-469 297,-446 246,-446"/>
<text text-anchor="start" x="248.538" y="-451.9" font-family="Helvetica,sans-Serif" font-size="14.00">443/tcp</text>
<polygon fill="none" stroke="black" points="199,-422 199,-444 297,-444 297,-422 199,-422"/>
<text text-anchor="start" x="225.168" y="-427" font-family="Helvetica,sans-Serif" font-size="14.00">WebLB</text>
</g>
<!-- 6&#45;&gt;3 -->
<g id="edge6" class="edge"><title>6&#45;&gt;3:p80tcp</title>
<path fill="none" stroke="blue" d="M207.069,-416.307C204.501,-413.667 202.107,-410.891 200,-408 188.806,-392.641 199.265,-369.624 191.472,-361.219"/>
<polygon fill="blue" stroke="blue" points="192.594,-357.904 182,-358 190.342,-364.532 192.594,-357.904"/>
</g>
<!-- 6&#45;&gt;4 -->
<g id="edge5" class="edge"><title>6&#45;&gt;4:p80tcp</title>
<path fill="none" stroke="blue" d="M248,-416.152C248,-405.259 248,-392.516 248,-380.197"/>
<polygon fill="blue" stroke="blue" points="251.5,-380 248,-370 244.5,-380 251.5,-380"/>
</g>
<!-- 6&#45;&gt;5 -->
<g id="edge4" class="edge"><title>6&#45;&gt;5:p80tcp</title>
<path fill="none" stroke="blue" d="M288.931,-416.307C291.499,-413.667 293.893,-410.891 296,-408 307.194,-392.641 296.735,-369.624 304.528,-361.219"/>
<polygon fill="blue" stroke="blue" points="305.658,-364.532 314,-358 303.406,-357.904 305.658,-364.532"/>
</g>
<!-- 7 -->
<g id="node5" class="node"><title>7</title>
<polygon fill="none" stroke="black" points="579,-375.5 407,-375.5 407,-316.5 579,-316.5 579,-375.5"/>
<polygon fill="none" stroke="black" points="417,-346 417,-369 462,-369 462,-346 417,-346"/>
<text text-anchor="start" x="420.431" y="-351.9" font-family="Helvetica,sans-Serif" font-size="14.00">80/tcp</text>
<polygon fill="none" stroke="black" points="464,-346 464,-369 523,-369 523,-346 464,-346"/>
<text text-anchor="start" x="466.645" y="-351.9" font-family="Helvetica,sans-Serif" font-size="14.00">8080/tcp</text>
<polygon fill="none" stroke="black" points="525,-346 525,-369 569,-369 569,-346 525,-346"/>
<text text-anchor="start" x="527.931" y="-351.9" font-family="Helvetica,sans-Serif" font-size="14.00">25/tcp</text>
<polygon fill="none" stroke="black" points="417,-322 417,-344 569,-344 569,-322 417,-322"/>
<text text-anchor="start" x="468.866" y="-327" font-family="Helvetica,sans-Serif" font-size="14.00">App002</text>
</g>
<!-- 7&#45;&gt;9 -->
<g id="edge13" class="edge"><title>7&#45;&gt;9:p8080tcp</title>
<path fill="none" stroke="blue" d="M493.587,-316.328C493.752,-306.528 493.904,-295.273 493.968,-284.334"/>
<polygon fill="blue" stroke="blue" points="497.469,-284.011 494,-274 490.469,-283.989 497.469,-284.011"/>
</g>
<!-- 10 -->
<g id="node8" class="node"><title>10</title>
<polygon fill="none" stroke="black" points="556,-75.5 476,-75.5 476,-16.5 556,-16.5 556,-75.5"/>
<polygon fill="none" stroke="black" points="486,-46 486,-69 546,-69 546,-46 486,-46"/>
<text text-anchor="start" x="489.145" y="-51.9" font-family="Helvetica,sans-Serif" font-size="14.00">3306/tcp</text>
<polygon fill="none" stroke="black" points="486,-22 486,-44 546,-44 546,-22 486,-22"/>
<text text-anchor="start" x="494.597" y="-27" font-family="Helvetica,sans-Serif" font-size="14.00">DB001</text>
</g>
<!-- 7&#45;&gt;10 -->
<g id="edge21" class="edge"><title>7&#45;&gt;10:p3306tcp</title>
<path fill="none" stroke="midnightblue" d="M553.915,-316.167C567.555,-306.662 580.262,-294.671 588,-280 633.165,-194.373 646.412,-67.3144 557.167,-58.4864"/>
<polygon fill="midnightblue" stroke="midnightblue" points="557.156,-54.9819 547,-58 556.821,-61.9739 557.156,-54.9819"/>
</g>
<!-- 8 -->
<g id="node6" class="node"><title>8</title>
<polygon fill="none" stroke="black" points="579,-183.5 407,-183.5 407,-124.5 579,-124.5 579,-183.5"/>
<polygon fill="none" stroke="black" points="417,-154 417,-177 462,-177 462,-154 417,-154"/>
<text text-anchor="start" x="420.431" y="-159.9" font-family="Helvetica,sans-Serif" font-size="14.00">80/tcp</text>
<polygon fill="none" stroke="black" points="464,-154 464,-177 523,-177 523,-154 464,-154"/>
<text text-anchor="start" x="466.645" y="-159.9" font-family="Helvetica,sans-Serif" font-size="14.00">8080/tcp</text>
<polygon fill="none" stroke="black" points="525,-154 525,-177 569,-177 569,-154 525,-154"/>
<text text-anchor="start" x="527.931" y="-159.9" font-family="Helvetica,sans-Serif" font-size="14.00">25/tcp</text>
<polygon fill="none" stroke="black" points="417,-130 417,-152 569,-152 569,-130 417,-130"/>
<text text-anchor="start" x="468.866" y="-135" font-family="Helvetica,sans-Serif" font-size="14.00">App001</text>
</g>
<!-- 8&#45;&gt;9 -->
<g id="edge12" class="edge"><title>8&#45;&gt;9:p8080tcp</title>
<path fill="none" stroke="blue" d="M546.469,-183.523C559.489,-193.247 571.745,-205.423 579,-220 589.495,-241.088 595.558,-256.246 579,-273 555.14,-297.142 505.542,-309.207 495.714,-284.01"/>
<polygon fill="blue" stroke="blue" points="499.137,-283.266 494,-274 492.238,-284.447 499.137,-283.266"/>
</g>
<!-- 8&#45;&gt;10 -->
<g id="edge20" class="edge"><title>8&#45;&gt;10:p3306tcp</title>
<path fill="none" stroke="midnightblue" d="M505.039,-124.344C509.604,-111.424 514.055,-95.609 515.508,-80.1076"/>
<polygon fill="midnightblue" stroke="midnightblue" points="519.009,-80.1585 516,-70 512.018,-79.8178 519.009,-80.1585"/>
</g>
<!-- 9&#45;&gt;7 -->
<g id="edge17" class="edge"><title>9&#45;&gt;7:p25tcp</title>
<path fill="none" stroke="green" d="M546.469,-279.523C559.489,-289.247 571.745,-301.423 579,-316 589.495,-337.088 595.394,-352.086 579,-369 572.346,-375.865 560.188,-380.38 552.926,-378.288"/>
<polygon fill="green" stroke="green" points="555.663,-376.099 547,-370 549.969,-380.17 555.663,-376.099"/>
</g>
<!-- 9&#45;&gt;7 -->
<g id="edge18" class="edge"><title>9&#45;&gt;7:p80tcp</title>
<path fill="none" stroke="blue" d="M439.531,-279.523C426.511,-289.247 414.255,-301.423 407,-316 396.505,-337.088 390.606,-352.086 407,-369 413.654,-375.865 425.812,-380.38 433.074,-378.288"/>
<polygon fill="blue" stroke="blue" points="436.031,-380.17 439,-370 430.337,-376.099 436.031,-380.17"/>
</g>
<!-- 9&#45;&gt;7 -->
<g id="edge19" class="edge"><title>9&#45;&gt;7:p8080tcp</title>
<path fill="none" stroke="blue" d="M546.469,-279.523C559.489,-289.247 571.745,-301.423 579,-316 589.495,-337.088 595.558,-352.246 579,-369 555.14,-393.142 505.542,-405.207 495.714,-380.01"/>
<polygon fill="blue" stroke="blue" points="499.137,-379.266 494,-370 492.238,-380.447 499.137,-379.266"/>
</g>
<!-- 9&#45;&gt;8 -->
<g id="edge14" class="edge"><title>9&#45;&gt;8:p25tcp</title>
<path fill="none" stroke="green" d="M527.81,-220.325C535.973,-211.134 543.094,-200.206 545.819,-188.259"/>
<polygon fill="green" stroke="green" points="549.333,-188.335 547,-178 542.379,-187.534 549.333,-188.335"/>
</g>
<!-- 9&#45;&gt;8 -->
<g id="edge15" class="edge"><title>9&#45;&gt;8:p80tcp</title>
<path fill="none" stroke="blue" d="M458.19,-220.325C450.027,-211.134 442.906,-200.206 440.181,-188.259"/>
<polygon fill="blue" stroke="blue" points="443.621,-187.534 439,-178 436.667,-188.335 443.621,-187.534"/>
</g>
<!-- 9&#45;&gt;8 -->
<g id="edge16" class="edge"><title>9&#45;&gt;8:p8080tcp</title>
<path fill="none" stroke="blue" d="M493.587,-220.328C493.752,-210.528 493.904,-199.273 493.968,-188.334"/>
<polygon fill="blue" stroke="blue" points="497.469,-188.011 494,-178 490.469,-187.989 497.469,-188.011"/>
</g>
<!-- 1 -->
<g id="node9" class="node"><title>1</title>
<polygon fill="none" stroke="black" points="94.25,-364 -0.25,-364 -0.25,-328 94.25,-328 94.25,-364"/>
<text text-anchor="start" x="12.1035" y="-339.9" font-family="Helvetica,sans-Serif" font-size="14.00">Mail Server</text>
</g>
<!-- 1&#45;&gt;9 -->
<g id="edge3" class="edge"><title>1&#45;&gt;9:p25tcp</title>
<path fill="none" stroke="green" d="M66.6286,-327.833C76.3115,-320.384 88.5647,-312.376 101,-308 144.768,-292.597 495.545,-319.638 541.94,-282.856"/>
<polygon fill="green" stroke="green" points="545.078,-284.419 547,-274 539,-280.946 545.078,-284.419"/>
</g>
<!-- 2 -->
<g id="node10" class="node"><title>2</title>
<polygon fill="none" stroke="black" points="285,-552 209,-552 209,-516 285,-516 285,-552"/>
<text text-anchor="start" x="221.328" y="-527.9" font-family="Helvetica,sans-Serif" font-size="14.00">Browser</text>
</g>
<!-- 2&#45;&gt;6 -->
<g id="edge1" class="edge"><title>2&#45;&gt;6:p80tcp</title>
<path fill="none" stroke="blue" d="M235.672,-515.857C230.088,-506.095 224.087,-493.216 221.879,-480.063"/>
<polygon fill="blue" stroke="blue" points="225.357,-479.657 221,-470 218.384,-480.267 225.357,-479.657"/>
</g>
<!-- 2&#45;&gt;6 -->
<g id="edge2" class="edge"><title>2&#45;&gt;6:p443tcp</title>
<path fill="none" stroke="black" d="M257.893,-515.8C263.261,-506.018 269.032,-493.129 271.155,-480.02"/>
<polygon fill="black" stroke="black" points="274.647,-480.259 272,-470 267.672,-479.67 274.647,-480.259"/>
</g>
</g>
</svg>
