<?xml version="1.0" encoding="UTF-8" standalone="no"?>
<!DOCTYPE svg PUBLIC "-//W3C//DTD SVG 1.1//EN"
 "http://www.w3.org/Graphics/SVG/1.1/DTD/svg11.dtd">
<!-- Generated by graphviz version 2.34.0 (20140129.0153)
 -->
<!-- Title: G Pages: 1 -->
<svg width="382pt" height="208pt"
 viewBox="0.00 0.00 382.00 208.00" xmlns="http://www.w3.org/2000/svg" xmlns:xlink="http://www.w3.org/1999/xlink">
<g id="graph0" class="graph" transform="scale(1 1) rotate(0) translate(4 204)">
<title>G</title>
<polygon fill="white" stroke="white" points="-4,4 -4,-204 378,-204 378,4 -4,4"/>
<!-- 0 -->
<g id="node1" class="node"><title>0</title>
<polygon fill="none" stroke="black" points="-0.65332,-163 -0.65332,-199 112.653,-199 112.653,-163 -0.65332,-163"/>
<text text-anchor="middle" x="24.8433" y="-175.5" font-family="Times,serif" font-size="14.00">80/tcp</text>
<polyline fill="none" stroke="black" points="50.3398,-163 50.3398,-199 "/>
<text text-anchor="middle" x="81.4966" y="-175.4" font-family="Times,serif" font-size="14.00">Web001</text>
</g>
<!-- 3 -->
<g id="node4" class="node"><title>3</title>
<polygon fill="none" stroke="black" points="30.9482,-75.2 30.9482,-124.8 143.052,-124.8 143.052,-75.2 30.9482,-75.2"/>
<text text-anchor="middle" x="56.4448" y="-106.8" font-family="Times,serif" font-size="14.00">80/tcp</text>
<polyline fill="none" stroke="black" points="30.9482,-100 81.9414,-100 "/>
<text text-anchor="middle" x="56.4448" y="-82" font-family="Times,serif" font-size="14.00">25/tcp</text>
<polyline fill="none" stroke="black" points="81.9414,-75.2 81.9414,-124.8 "/>
<text text-anchor="middle" x="112.497" y="-94.4" font-family="Times,serif" font-size="14.00">App001</text>
</g>
<!-- 0&#45;&gt;3 -->
<g id="edge1" class="edge"><title>0&#45;&gt;3:p80tcp</title>
<path fill="none" stroke="black" d="M56,-162.975C56,-155.169 56,-145.561 56,-136.106"/>
<polygon fill="black" stroke="black" points="59.5001,-136 56,-126 52.5001,-136 59.5001,-136"/>
</g>
<!-- 1 -->
<g id="node2" class="node"><title>1</title>
<polygon fill="none" stroke="black" points="130.347,-163 130.347,-199 243.653,-199 243.653,-163 130.347,-163"/>
<text text-anchor="middle" x="155.843" y="-175.5" font-family="Times,serif" font-size="14.00">80/tcp</text>
<polyline fill="none" stroke="black" points="181.34,-163 181.34,-199 "/>
<text text-anchor="middle" x="212.497" y="-175.4" font-family="Times,serif" font-size="14.00">Web002</text>
</g>
<!-- 4 -->
<g id="node5" class="node"><title>4</title>
<polygon fill="none" stroke="black" points="161.948,-75.2 161.948,-124.8 274.052,-124.8 274.052,-75.2 161.948,-75.2"/>
<text text-anchor="middle" x="187.445" y="-106.8" font-family="Times,serif" font-size="14.00">80/tcp</text>
<polyline fill="none" stroke="black" points="161.948,-100 212.941,-100 "/>
<text text-anchor="middle" x="187.445" y="-82" font-family="Times,serif" font-size="14.00">25/tcp</text>
<polyline fill="none" stroke="black" points="212.941,-75.2 212.941,-124.8 "/>
<text text-anchor="middle" x="243.497" y="-94.4" font-family="Times,serif" font-size="14.00">App002</text>
</g>
<!-- 1&#45;&gt;4 -->
<g id="edge2" class="edge"><title>1&#45;&gt;4:p80tcp</title>
<path fill="none" stroke="black" d="M187,-162.975C187,-155.169 187,-145.561 187,-136.106"/>
<polygon fill="black" stroke="black" points="190.5,-136 187,-126 183.5,-136 190.5,-136"/>
</g>
<!-- 2 -->
<g id="node3" class="node"><title>2</title>
<polygon fill="none" stroke="black" points="261.347,-163 261.347,-199 374.653,-199 374.653,-163 261.347,-163"/>
<text text-anchor="middle" x="286.843" y="-175.5" font-family="Times,serif" font-size="14.00">80/tcp</text>
<polyline fill="none" stroke="black" points="312.34,-163 312.34,-199 "/>
<text text-anchor="middle" x="343.497" y="-175.4" font-family="Times,serif" font-size="14.00">Web003</text>
</g>
<!-- 2&#45;&gt;4 -->
<g id="edge3" class="edge"><title>2&#45;&gt;4:p80tcp</title>
<path fill="none" stroke="black" d="M264.339,-162.993C237.206,-153.791 207.269,-142.548 193.997,-133.778"/>
<polygon fill="black" stroke="black" points="196.29,-131.094 187,-126 191.086,-135.775 196.29,-131.094"/>
</g>
<!-- 5 -->
<g id="node6" class="node"><title>5</title>
<polygon fill="none" stroke="black" points="119.279,-1 119.279,-37 240.721,-37 240.721,-1 119.279,-1"/>
<text text-anchor="middle" x="151.776" y="-13.5" font-family="Times,serif" font-size="14.00">3306/tcp</text>
<polyline fill="none" stroke="black" points="184.272,-1 184.272,-37 "/>
<text text-anchor="middle" x="212.497" y="-13.4" font-family="Times,serif" font-size="14.00">DB001</text>
</g>
<!-- 3&#45;&gt;5 -->
<g id="edge4" class="edge"><title>3&#45;&gt;5:p3306tcp</title>
<path fill="none" stroke="black" d="M86.6884,-74.9974C87.6195,-55.1148 91.9859,-28.9188 107.912,-21.2179"/>
<polygon fill="black" stroke="black" points="108.985,-24.5656 118,-19 107.482,-17.7289 108.985,-24.5656"/>
</g>
<!-- 4&#45;&gt;5 -->
<g id="edge5" class="edge"><title>4&#45;&gt;5:p3306tcp</title>
<path fill="none" stroke="black" d="M173.246,-75.1515C164.234,-67.8064 156.568,-58.8027 153.469,-48.1932"/>
<polygon fill="black" stroke="black" points="156.891,-47.3984 152,-38 149.962,-48.397 156.891,-47.3984"/>
</g>
</g>
</svg>
