<?xml version="1.0" encoding="UTF-8" standalone="no"?>
<!DOCTYPE svg PUBLIC "-//W3C//DTD SVG 1.1//EN"
 "http://www.w3.org/Graphics/SVG/1.1/DTD/svg11.dtd">
<!-- Generated by graphviz version 2.34.0 (20140129.0153)
 -->
<!-- Title: G Pages: 1 -->
<svg width="142pt" height="208pt"
 viewBox="0.00 0.00 142.00 208.00" xmlns="http://www.w3.org/2000/svg" xmlns:xlink="http://www.w3.org/1999/xlink">
<g id="graph0" class="graph" transform="scale(1 1) rotate(0) translate(4 204)">
<title>G</title>
<polygon fill="white" stroke="white" points="-4,4 -4,-204 138,-204 138,4 -4,4"/>
<!-- 0 -->
<g id="node1" class="node"><title>0</title>
<polygon fill="none" stroke="black" points="-0.15332,-149.2 -0.15332,-198.8 92.1533,-198.8 92.1533,-149.2 -0.15332,-149.2"/>
<text text-anchor="middle" x="25.3433" y="-180.8" font-family="Times,serif" font-size="14.00">80/tcp</text>
<polyline fill="none" stroke="black" points="-0.15332,-174 50.8398,-174 "/>
<text text-anchor="middle" x="25.3433" y="-156" font-family="Times,serif" font-size="14.00">25/tcp</text>
<polyline fill="none" stroke="black" points="50.8398,-149.2 50.8398,-198.8 "/>
<text text-anchor="middle" x="71.4966" y="-168.4" font-family="Times,serif" font-size="14.00">Web</text>
</g>
<!-- 1 -->
<g id="node2" class="node"><title>1</title>
<polygon fill="none" stroke="black" points="20.4482,-75 20.4482,-111 111.552,-111 111.552,-75 20.4482,-75"/>
<text text-anchor="middle" x="45.9448" y="-87.5" font-family="Times,serif" font-size="14.00">80/tcp</text>
<polyline fill="none" stroke="black" points="71.4414,-75 71.4414,-111 "/>
<text text-anchor="middle" x="91.4966" y="-87.4" font-family="Times,serif" font-size="14.00">App</text>
</g>
<!-- 0&#45;&gt;1 -->
<g id="edge1" class="edge"><title>0&#45;&gt;1:p80tcp</title>
<path fill="none" stroke="black" d="M46,-148.953C46,-140.795 46,-131.414 46,-122.222"/>
<polygon fill="black" stroke="black" points="49.5001,-122 46,-112 42.5001,-122 49.5001,-122"/>
</g>
<!-- 2 -->
<g id="node3" class="node"><title>2</title>
<polygon fill="none" stroke="black" points="33.7793,-1 33.7793,-37 134.221,-37 134.221,-1 33.7793,-1"/>
<text text-anchor="middle" x="66.2759" y="-13.5" font-family="Times,serif" font-size="14.00">3306/tcp</text>
<polyline fill="none" stroke="black" points="98.7725,-1 98.7725,-37 "/>
<text text-anchor="middle" x="116.497" y="-13.4" font-family="Times,serif" font-size="14.00">DB</text>
</g>
<!-- 1&#45;&gt;2 -->
<g id="edge2" class="edge"><title>1&#45;&gt;2:p3306tcp</title>
<path fill="none" stroke="black" d="M66,-74.9754C66,-67.1689 66,-57.561 66,-48.1065"/>
<polygon fill="black" stroke="black" points="69.5001,-48 66,-38 62.5001,-48 69.5001,-48"/>
</g>
</g>
</svg>
