<?xml version="1.0" encoding="UTF-8" standalone="no"?>
<!DOCTYPE svg PUBLIC "-//W3C//DTD SVG 1.1//EN"
 "http://www.w3.org/Graphics/SVG/1.1/DTD/svg11.dtd">
<!-- Generated by graphviz version 2.34.0 (20140129.0153)
 -->
<!-- Title: simple Pages: 1 -->
<svg width="364pt" height="460pt"
 viewBox="0.00 0.00 364.00 460.00" xmlns="http://www.w3.org/2000/svg" xmlns:xlink="http://www.w3.org/1999/xlink">
<g id="0" class="graph" transform="scale(1 1) rotate(0) translate(4 456)">
<title>simple</title>
<polygon fill="white" stroke="white" points="-4,4 -4,-456 360,-456 360,4 -4,4"/>
<g id="1" class="cluster"><title>cluster_Web</title>
<polygon fill="none" stroke="black" points="105,-212 105,-408 295,-408 295,-212 105,-212"/>
<text text-anchor="middle" x="200" y="-390" font-family="Helvetica,sans-Serif" font-size="14.00">Web</text>
</g>
<g id="2" class="cluster"><title>cluster_App</title>
<polygon fill="none" stroke="black" points="91,-8 91,-204 348,-204 348,-8 91,-8"/>
<text text-anchor="middle" x="219.5" y="-186" font-family="Helvetica,sans-Serif" font-size="14.00">App</text>
</g>
<!-- 0 -->
<g id="0" class="node"><title>0</title>
<g id="a_0"><a xlink:href="https://github.com/otahi/network_drawer/" xlink:title="WebLB">
<path fill="azure" stroke="black" stroke-dasharray="1,5" d="M247,-375.5C247,-375.5 153,-375.5 153,-375.5 147,-375.5 141,-369.5 141,-363.5 141,-363.5 141,-328.5 141,-328.5 141,-322.5 147,-316.5 153,-316.5 153,-316.5 247,-316.5 247,-316.5 253,-316.5 259,-322.5 259,-328.5 259,-328.5 259,-363.5 259,-363.5 259,-369.5 253,-375.5 247,-375.5"/>
<polygon fill="none" stroke="black" points="151,-346 151,-369 196,-369 196,-346 151,-346"/>
<text text-anchor="start" x="154.431" y="-351.9" font-family="Helvetica,sans-Serif" font-size="14.00">80/tcp</text>
<polygon fill="none" stroke="black" points="198,-346 198,-369 249,-369 249,-346 198,-346"/>
<text text-anchor="start" x="200.538" y="-351.9" font-family="Helvetica,sans-Serif" font-size="14.00">443/tcp</text>
<polygon fill="none" stroke="black" points="151,-322 151,-344 249,-344 249,-322 151,-322"/>
<text text-anchor="start" x="177.168" y="-327" font-family="Helvetica,sans-Serif" font-size="14.00">WebLB</text>
</a>
</g>
</g>
<!-- 1 -->
<g id="1" class="node"><title>1</title>
<g id="a_1"><a xlink:title="Web001">
<polygon fill="none" stroke="black" points="191,-279.5 113,-279.5 113,-220.5 191,-220.5 191,-279.5"/>
<polygon fill="none" stroke="black" points="123,-250 123,-273 181,-273 181,-250 123,-250"/>
<text text-anchor="start" x="132.931" y="-255.9" font-family="Helvetica,sans-Serif" font-size="14.00">80/tcp</text>
<polygon fill="none" stroke="black" points="123,-226 123,-248 181,-248 181,-226 123,-226"/>
<text text-anchor="start" x="126.051" y="-231" font-family="Helvetica,sans-Serif" font-size="14.00">Web001</text>
</a>
</g>
</g>
<!-- 0&#45;&gt;1 -->
<g id="3" class="edge"><title>0&#45;&gt;1:p80tcp</title>
<path fill="none" stroke="blue" d="M199.141,-316.436C198.045,-299.18 195.572,-278.608 190.026,-268.401"/>
<polygon fill="blue" stroke="blue" points="192,-265.499 182,-262 187.636,-270.972 192,-265.499"/>
</g>
<!-- 2 -->
<g id="2" class="node"><title>2</title>
<g id="a_2"><a xlink:title="Web002">
<polygon fill="none" stroke="black" points="287,-279.5 209,-279.5 209,-220.5 287,-220.5 287,-279.5"/>
<polygon fill="none" stroke="black" points="219,-250 219,-273 277,-273 277,-250 219,-250"/>
<text text-anchor="start" x="228.931" y="-255.9" font-family="Helvetica,sans-Serif" font-size="14.00">80/tcp</text>
<polygon fill="none" stroke="black" points="219,-226 219,-248 277,-248 277,-226 219,-226"/>
<text text-anchor="start" x="222.051" y="-231" font-family="Helvetica,sans-Serif" font-size="14.00">Web002</text>
</a>
</g>
</g>
<!-- 0&#45;&gt;2 -->
<g id="4" class="edge"><title>0&#45;&gt;2:p80tcp</title>
<path fill="none" stroke="blue" d="M200.859,-316.436C201.955,-299.18 204.428,-278.608 209.974,-268.401"/>
<polygon fill="blue" stroke="blue" points="212.364,-270.972 218,-262 208,-265.499 212.364,-270.972"/>
</g>
<!-- 3 -->
<g id="3" class="node"><title>3</title>
<g id="a_3"><a xlink:title="AppLB">
<path fill="azure" stroke="black" stroke-dasharray="1,5" d="M218.25,-171.5C218.25,-171.5 131.75,-171.5 131.75,-171.5 125.75,-171.5 119.75,-165.5 119.75,-159.5 119.75,-159.5 119.75,-124.5 119.75,-124.5 119.75,-118.5 125.75,-112.5 131.75,-112.5 131.75,-112.5 218.25,-112.5 218.25,-112.5 224.25,-112.5 230.25,-118.5 230.25,-124.5 230.25,-124.5 230.25,-159.5 230.25,-159.5 230.25,-165.5 224.25,-171.5 218.25,-171.5"/>
<polygon fill="none" stroke="black" points="130,-142 130,-165 175,-165 175,-142 130,-142"/>
<text text-anchor="start" x="133.431" y="-147.9" font-family="Helvetica,sans-Serif" font-size="14.00">80/tcp</text>
<polygon fill="none" stroke="black" points="177,-142 177,-165 221,-165 221,-142 177,-142"/>
<text text-anchor="start" x="179.931" y="-147.9" font-family="Helvetica,sans-Serif" font-size="14.00">25/tcp</text>
<polygon fill="none" stroke="black" points="130,-118 130,-140 221,-140 221,-118 130,-118"/>
<text text-anchor="start" x="154.483" y="-123" font-family="Helvetica,sans-Serif" font-size="14.00">AppLB</text>
</a>
</g>
</g>
<!-- 1&#45;&gt;3 -->
<g id="5" class="edge"><title>1&#45;&gt;3:p80tcp</title>
<path fill="none" stroke="blue" d="M152,-220.191C152,-207.217 152,-191.442 152,-176.321"/>
<polygon fill="blue" stroke="blue" points="155.5,-176 152,-166 148.5,-176 155.5,-176"/>
</g>
<!-- 2&#45;&gt;3 -->
<g id="6" class="edge"><title>2&#45;&gt;3:p80tcp</title>
<path fill="none" stroke="blue" d="M212.526,-220.441C192.443,-204.036 169.215,-184.601 158.292,-173.792"/>
<polygon fill="blue" stroke="blue" points="161.006,-171.581 152,-166 155.559,-175.979 161.006,-171.581"/>
</g>
<!-- 4 -->
<g id="4" class="node"><title>4</title>
<g id="a_4"><a xlink:title="App001">
<polygon fill="none" stroke="black" points="210.25,-75.5 99.75,-75.5 99.75,-16.5 210.25,-16.5 210.25,-75.5"/>
<polygon fill="none" stroke="black" points="110,-46 110,-69 155,-69 155,-46 110,-46"/>
<text text-anchor="start" x="113.431" y="-51.9" font-family="Helvetica,sans-Serif" font-size="14.00">80/tcp</text>
<polygon fill="none" stroke="black" points="157,-46 157,-69 201,-69 201,-46 157,-46"/>
<text text-anchor="start" x="159.931" y="-51.9" font-family="Helvetica,sans-Serif" font-size="14.00">25/tcp</text>
<polygon fill="none" stroke="black" points="110,-22 110,-44 201,-44 201,-22 110,-22"/>
<text text-anchor="start" x="131.366" y="-27" font-family="Helvetica,sans-Serif" font-size="14.00">App001</text>
</a>
</g>
</g>
<!-- 3&#45;&gt;4 -->
<g id="8" class="edge"><title>3&#45;&gt;4:p80tcp</title>
<path fill="none" stroke="blue" d="M148.012,-112.171C141.33,-102.814 135.406,-91.8422 133.064,-80.2832"/>
<polygon fill="blue" stroke="blue" points="136.511,-79.5865 132,-70 129.548,-80.3072 136.511,-79.5865"/>
</g>
<!-- 5 -->
<g id="5" class="node"><title>5</title>
<g id="a_5"><a xlink:title="App002">
<polygon fill="none" stroke="black" points="339.25,-75.5 228.75,-75.5 228.75,-16.5 339.25,-16.5 339.25,-75.5"/>
<polygon fill="none" stroke="black" points="239,-46 239,-69 284,-69 284,-46 239,-46"/>
<text text-anchor="start" x="242.431" y="-51.9" font-family="Helvetica,sans-Serif" font-size="14.00">80/tcp</text>
<polygon fill="none" stroke="black" points="286,-46 286,-69 330,-69 330,-46 286,-46"/>
<text text-anchor="start" x="288.931" y="-51.9" font-family="Helvetica,sans-Serif" font-size="14.00">25/tcp</text>
<polygon fill="none" stroke="black" points="239,-22 239,-44 330,-44 330,-22 239,-22"/>
<text text-anchor="start" x="260.366" y="-27" font-family="Helvetica,sans-Serif" font-size="14.00">App002</text>
</a>
</g>
</g>
<!-- 3&#45;&gt;5 -->
<g id="10" class="edge"><title>3&#45;&gt;5:p80tcp</title>
<path fill="none" stroke="blue" d="M193.408,-112.436C205.132,-94.8045 219.905,-73.7116 229.702,-63.75"/>
<polygon fill="blue" stroke="blue" points="231.774,-66.5724 238,-58 227.787,-60.8186 231.774,-66.5724"/>
</g>
<!-- 6 -->
<g id="6" class="node"><title>6</title>
<g id="a_6"><a xlink:title="Browser">
<polygon fill="none" stroke="black" points="262,-452 186,-452 186,-416 262,-416 262,-452"/>
<text text-anchor="start" x="198.328" y="-427.9" font-family="Helvetica,sans-Serif" font-size="14.00">Browser</text>
</a>
</g>
</g>
<!-- 6&#45;&gt;0 -->
<g id="1" class="edge"><title>6&#45;&gt;0:p443tcp</title>
<path fill="none" stroke="black" d="M224,-415.887C224,-405.889 224,-392.769 224,-380.049"/>
<polygon fill="black" stroke="black" points="227.5,-380 224,-370 220.5,-380 227.5,-380"/>
</g>
<!-- 7 -->
<g id="7" class="node"><title>7</title>
<g id="a_7"><a xlink:title="Mail Server">
<polygon fill="none" stroke="black" points="94.25,-268 -0.25,-268 -0.25,-232 94.25,-232 94.25,-268"/>
<text text-anchor="start" x="12.1035" y="-243.9" font-family="Helvetica,sans-Serif" font-size="14.00">Mail Server</text>
</a>
</g>
</g>
<!-- 7&#45;&gt;3 -->
<g id="2" class="edge"><title>7&#45;&gt;3:p25tcp</title>
<path fill="none" stroke="green" d="M70.1237,-231.94C79.4894,-225.355 90.5446,-217.983 101,-212 139.498,-189.969 190.301,-210.355 198.004,-175.979"/>
<polygon fill="green" stroke="green" points="201.489,-176.298 199,-166 194.524,-175.603 201.489,-176.298"/>
</g>
</g>
</svg>
