<?xml version="1.0" encoding="UTF-8" standalone="no"?>
<!DOCTYPE svg PUBLIC "-//W3C//DTD SVG 1.1//EN"
 "http://www.w3.org/Graphics/SVG/1.1/DTD/svg11.dtd">
<!-- Generated by graphviz version 2.34.0 (20140129.0153)
 -->
<!-- Title: simple Pages: 1 -->
<svg width="533pt" height="492pt"
 viewBox="0.00 0.00 533.00 492.00" xmlns="http://www.w3.org/2000/svg" xmlns:xlink="http://www.w3.org/1999/xlink">
<g id="0" class="graph" transform="scale(1 1) rotate(0) translate(4 488)">
<title>simple</title>
<polygon fill="white" stroke="white" points="-4,4 -4,-488 529,-488 529,4 -4,4"/>
<g id="1" class="cluster"><title>cluster_Web</title>
<polygon fill="none" stroke="black" points="104,-212 104,-440 517,-440 517,-212 104,-212"/>
<text text-anchor="middle" x="310.5" y="-422" font-family="Helvetica,sans-Serif" font-size="14.00">Web</text>
</g>
<g id="2" class="cluster"><title>cluster_Image</title>
<polygon fill="none" stroke="black" points="240,-308 240,-408 509,-408 509,-308 240,-308"/>
<text text-anchor="middle" x="374.5" y="-390" font-family="Helvetica,sans-Serif" font-size="14.00">Image</text>
</g>
<g id="3" class="cluster"><title>cluster_App</title>
<polygon fill="none" stroke="black" points="46,-8 46,-204 303,-204 303,-8 46,-8"/>
<text text-anchor="middle" x="174.5" y="-186" font-family="Helvetica,sans-Serif" font-size="14.00">App</text>
</g>
<!-- 0 -->
<g id="0" class="node"><title>0</title>
<g id="a_0"><a xlink:title="ImageWeb001">
<polygon fill="none" stroke="black" points="500.25,-375.5 383.75,-375.5 383.75,-316.5 500.25,-316.5 500.25,-375.5"/>
<polygon fill="none" stroke="black" points="394,-346 394,-369 491,-369 491,-346 394,-346"/>
<text text-anchor="start" x="423.431" y="-351.9" font-family="Helvetica,sans-Serif" font-size="14.00">80/tcp</text>
<polygon fill="none" stroke="black" points="394,-322 394,-344 491,-344 491,-322 394,-322"/>
<text text-anchor="start" x="397.096" y="-327" font-family="Helvetica,sans-Serif" font-size="14.00">ImageWeb001</text>
</a>
</g>
</g>
<!-- 1 -->
<g id="1" class="node"><title>1</title>
<g id="a_1"><a xlink:title="ImageWeb002">
<polygon fill="none" stroke="black" points="365.25,-375.5 248.75,-375.5 248.75,-316.5 365.25,-316.5 365.25,-375.5"/>
<polygon fill="none" stroke="black" points="259,-346 259,-369 356,-369 356,-346 259,-346"/>
<text text-anchor="start" x="288.431" y="-351.9" font-family="Helvetica,sans-Serif" font-size="14.00">80/tcp</text>
<polygon fill="none" stroke="black" points="259,-322 259,-344 356,-344 356,-322 259,-322"/>
<text text-anchor="start" x="262.096" y="-327" font-family="Helvetica,sans-Serif" font-size="14.00">ImageWeb002</text>
</a>
</g>
</g>
<!-- 2 -->
<g id="2" class="node"><title>2</title>
<g id="a_2"><a xlink:href="https://github.com/otahi/network_drawer/" xlink:title="WebLB">
<path fill="azure" stroke="black" stroke-dasharray="1,5" d="M218,-375.5C218,-375.5 124,-375.5 124,-375.5 118,-375.5 112,-369.5 112,-363.5 112,-363.5 112,-328.5 112,-328.5 112,-322.5 118,-316.5 124,-316.5 124,-316.5 218,-316.5 218,-316.5 224,-316.5 230,-322.5 230,-328.5 230,-328.5 230,-363.5 230,-363.5 230,-369.5 224,-375.5 218,-375.5"/>
<polygon fill="none" stroke="black" points="122,-346 122,-369 167,-369 167,-346 122,-346"/>
<text text-anchor="start" x="125.431" y="-351.9" font-family="Helvetica,sans-Serif" font-size="14.00">80/tcp</text>
<polygon fill="none" stroke="black" points="169,-346 169,-369 220,-369 220,-346 169,-346"/>
<text text-anchor="start" x="171.538" y="-351.9" font-family="Helvetica,sans-Serif" font-size="14.00">443/tcp</text>
<polygon fill="none" stroke="black" points="122,-322 122,-344 220,-344 220,-322 122,-322"/>
<text text-anchor="start" x="148.168" y="-327" font-family="Helvetica,sans-Serif" font-size="14.00">WebLB</text>
</a>
</g>
</g>
<!-- 3 -->
<g id="3" class="node"><title>3</title>
<g id="a_3"><a xlink:title="Web001">
<polygon fill="none" stroke="black" points="191,-279.5 113,-279.5 113,-220.5 191,-220.5 191,-279.5"/>
<polygon fill="none" stroke="black" points="123,-250 123,-273 181,-273 181,-250 123,-250"/>
<text text-anchor="start" x="132.931" y="-255.9" font-family="Helvetica,sans-Serif" font-size="14.00">80/tcp</text>
<polygon fill="none" stroke="black" points="123,-226 123,-248 181,-248 181,-226 123,-226"/>
<text text-anchor="start" x="126.051" y="-231" font-family="Helvetica,sans-Serif" font-size="14.00">Web001</text>
</a>
</g>
</g>
<!-- 2&#45;&gt;3 -->
<g id="3" class="edge"><title>2&#45;&gt;3:p80tcp</title>
<path fill="none" stroke="blue" d="M159.728,-316.444C156.596,-306.662 153.73,-295.356 152.558,-284.18"/>
<polygon fill="blue" stroke="blue" points="156.042,-283.793 152,-274 149.053,-284.177 156.042,-283.793"/>
</g>
<!-- 4 -->
<g id="4" class="node"><title>4</title>
<g id="a_4"><a xlink:title="Web002">
<polygon fill="none" stroke="black" points="287,-279.5 209,-279.5 209,-220.5 287,-220.5 287,-279.5"/>
<polygon fill="none" stroke="black" points="219,-250 219,-273 277,-273 277,-250 219,-250"/>
<text text-anchor="start" x="228.931" y="-255.9" font-family="Helvetica,sans-Serif" font-size="14.00">80/tcp</text>
<polygon fill="none" stroke="black" points="219,-226 219,-248 277,-248 277,-226 219,-226"/>
<text text-anchor="start" x="222.051" y="-231" font-family="Helvetica,sans-Serif" font-size="14.00">Web002</text>
</a>
</g>
</g>
<!-- 2&#45;&gt;4 -->
<g id="4" class="edge"><title>2&#45;&gt;4:p80tcp</title>
<path fill="none" stroke="blue" d="M184.178,-316.436C192.374,-299.367 202.768,-279.054 210.398,-268.737"/>
<polygon fill="blue" stroke="blue" points="212.837,-271.252 218,-262 208.195,-266.013 212.837,-271.252"/>
</g>
<!-- 5 -->
<g id="5" class="node"><title>5</title>
<g id="a_5"><a xlink:title="AppLB">
<path fill="azure" stroke="black" stroke-dasharray="1,5" d="M218.25,-171.5C218.25,-171.5 131.75,-171.5 131.75,-171.5 125.75,-171.5 119.75,-165.5 119.75,-159.5 119.75,-159.5 119.75,-124.5 119.75,-124.5 119.75,-118.5 125.75,-112.5 131.75,-112.5 131.75,-112.5 218.25,-112.5 218.25,-112.5 224.25,-112.5 230.25,-118.5 230.25,-124.5 230.25,-124.5 230.25,-159.5 230.25,-159.5 230.25,-165.5 224.25,-171.5 218.25,-171.5"/>
<polygon fill="none" stroke="black" points="130,-142 130,-165 175,-165 175,-142 130,-142"/>
<text text-anchor="start" x="133.431" y="-147.9" font-family="Helvetica,sans-Serif" font-size="14.00">80/tcp</text>
<polygon fill="none" stroke="black" points="177,-142 177,-165 221,-165 221,-142 177,-142"/>
<text text-anchor="start" x="179.931" y="-147.9" font-family="Helvetica,sans-Serif" font-size="14.00">25/tcp</text>
<polygon fill="none" stroke="black" points="130,-118 130,-140 221,-140 221,-118 130,-118"/>
<text text-anchor="start" x="154.483" y="-123" font-family="Helvetica,sans-Serif" font-size="14.00">AppLB</text>
</a>
</g>
</g>
<!-- 3&#45;&gt;5 -->
<g id="5" class="edge"><title>3&#45;&gt;5:p80tcp</title>
<path fill="none" stroke="blue" d="M152,-220.191C152,-207.217 152,-191.442 152,-176.321"/>
<polygon fill="blue" stroke="blue" points="155.5,-176 152,-166 148.5,-176 155.5,-176"/>
</g>
<!-- 4&#45;&gt;5 -->
<g id="6" class="edge"><title>4&#45;&gt;5:p80tcp</title>
<path fill="none" stroke="blue" d="M212.526,-220.441C192.443,-204.036 169.215,-184.601 158.292,-173.792"/>
<polygon fill="blue" stroke="blue" points="161.006,-171.581 152,-166 155.559,-175.979 161.006,-171.581"/>
</g>
<!-- 6 -->
<g id="6" class="node"><title>6</title>
<g id="a_6"><a xlink:title="App001">
<polygon fill="none" stroke="black" points="165.25,-75.5 54.75,-75.5 54.75,-16.5 165.25,-16.5 165.25,-75.5"/>
<polygon fill="none" stroke="black" points="65,-46 65,-69 110,-69 110,-46 65,-46"/>
<text text-anchor="start" x="68.4312" y="-51.9" font-family="Helvetica,sans-Serif" font-size="14.00">80/tcp</text>
<polygon fill="none" stroke="black" points="112,-46 112,-69 156,-69 156,-46 112,-46"/>
<text text-anchor="start" x="114.931" y="-51.9" font-family="Helvetica,sans-Serif" font-size="14.00">25/tcp</text>
<polygon fill="none" stroke="black" points="65,-22 65,-44 156,-44 156,-22 65,-22"/>
<text text-anchor="start" x="86.3657" y="-27" font-family="Helvetica,sans-Serif" font-size="14.00">App001</text>
</a>
</g>
</g>
<!-- 5&#45;&gt;6 -->
<g id="7" class="edge"><title>5&#45;&gt;6:p25tcp</title>
<path fill="none" stroke="green" d="M149.5,-112.32C143.052,-102.894 137.306,-91.8436 135.033,-80.2736"/>
<polygon fill="green" stroke="green" points="138.483,-79.5995 134,-70 131.518,-80.3001 138.483,-79.5995"/>
</g>
<!-- 5&#45;&gt;6 -->
<g id="8" class="edge"><title>5&#45;&gt;6:p80tcp</title>
<path fill="none" stroke="blue" d="M119.268,-117.548C104.806,-108.2 92.1675,-95.862 88.2503,-80.1911"/>
<polygon fill="blue" stroke="blue" points="91.6918,-79.4993 87,-70 84.7439,-80.3518 91.6918,-79.4993"/>
</g>
<!-- 7 -->
<g id="7" class="node"><title>7</title>
<g id="a_7"><a xlink:title="App002">
<polygon fill="none" stroke="black" points="294.25,-75.5 183.75,-75.5 183.75,-16.5 294.25,-16.5 294.25,-75.5"/>
<polygon fill="none" stroke="black" points="194,-46 194,-69 239,-69 239,-46 194,-46"/>
<text text-anchor="start" x="197.431" y="-51.9" font-family="Helvetica,sans-Serif" font-size="14.00">80/tcp</text>
<polygon fill="none" stroke="black" points="241,-46 241,-69 285,-69 285,-46 241,-46"/>
<text text-anchor="start" x="243.931" y="-51.9" font-family="Helvetica,sans-Serif" font-size="14.00">25/tcp</text>
<polygon fill="none" stroke="black" points="194,-22 194,-44 285,-44 285,-22 194,-22"/>
<text text-anchor="start" x="215.366" y="-27" font-family="Helvetica,sans-Serif" font-size="14.00">App002</text>
</a>
</g>
</g>
<!-- 5&#45;&gt;7 -->
<g id="9" class="edge"><title>5&#45;&gt;7:p25tcp</title>
<path fill="none" stroke="green" d="M230.732,-117.548C245.194,-108.2 257.833,-95.862 261.75,-80.1911"/>
<polygon fill="green" stroke="green" points="265.256,-80.3518 263,-70 258.308,-79.4993 265.256,-80.3518"/>
</g>
<!-- 5&#45;&gt;7 -->
<g id="10" class="edge"><title>5&#45;&gt;7:p80tcp</title>
<path fill="none" stroke="blue" d="M200.5,-112.32C206.948,-102.894 212.694,-91.8436 214.967,-80.2736"/>
<polygon fill="blue" stroke="blue" points="218.482,-80.3001 216,-70 211.517,-79.5995 218.482,-80.3001"/>
</g>
<!-- 8 -->
<g id="8" class="node"><title>8</title>
<g id="a_8"><a xlink:title="Browser">
<polygon fill="none" stroke="black" points="208,-484 132,-484 132,-448 208,-448 208,-484"/>
<text text-anchor="start" x="144.328" y="-459.9" font-family="Helvetica,sans-Serif" font-size="14.00">Browser</text>
</a>
</g>
</g>
<!-- 8&#45;&gt;2 -->
<g id="0" class="edge"><title>8&#45;&gt;2:p80tcp</title>
<path fill="none" stroke="blue" d="M162.34,-447.876C155.599,-431.413 146.54,-405.394 144.445,-380.295"/>
<polygon fill="blue" stroke="blue" points="147.929,-379.839 144,-370 140.935,-380.142 147.929,-379.839"/>
</g>
<!-- 8&#45;&gt;2 -->
<g id="1" class="edge"><title>8&#45;&gt;2:p443tcp</title>
<path fill="none" stroke="black" d="M177.366,-447.848C183.847,-431.362 192.557,-405.325 194.572,-380.272"/>
<polygon fill="black" stroke="black" points="198.081,-380.137 195,-370 191.087,-379.846 198.081,-380.137"/>
</g>
<!-- 9 -->
<g id="9" class="node"><title>9</title>
<g id="a_9"><a xlink:title="Mail Server">
<polygon fill="none" stroke="black" points="94.25,-268 -0.25,-268 -0.25,-232 94.25,-232 94.25,-268"/>
<text text-anchor="start" x="12.1035" y="-243.9" font-family="Helvetica,sans-Serif" font-size="14.00">Mail Server</text>
</a>
</g>
</g>
<!-- 9&#45;&gt;5 -->
<g id="2" class="edge"><title>9&#45;&gt;5:p25tcp</title>
<path fill="none" stroke="green" d="M69.6461,-231.889C78.8316,-225.297 89.6903,-217.933 100,-212 138.766,-189.69 190.193,-210.654 197.991,-176.054"/>
<polygon fill="green" stroke="green" points="201.484,-176.299 199,-166 194.519,-175.601 201.484,-176.299"/>
</g>
</g>
</svg>
