<?xml version="1.0" encoding="UTF-8" standalone="no"?>
<!DOCTYPE svg PUBLIC "-//W3C//DTD SVG 1.1//EN"
 "http://www.w3.org/Graphics/SVG/1.1/DTD/svg11.dtd">
<!-- Generated by graphviz version 2.34.0 (20140129.0153)
 -->
<!-- Title: simple Pages: 1 -->
<svg width="377pt" height="444pt"
 viewBox="0.00 0.00 377.00 444.00" xmlns="http://www.w3.org/2000/svg" xmlns:xlink="http://www.w3.org/1999/xlink">
<g id="graph0" class="graph" transform="scale(1 1) rotate(0) translate(4 440)">
<title>simple</title>
<polygon fill="white" stroke="white" points="-4,4 -4,-440 373,-440 373,4 -4,4"/>
<g id="clust1" class="cluster"><title>cluster0</title>
<polygon fill="none" stroke="black" points="104,-8 104,-372 361,-372 361,-8 104,-8"/>
</g>
<!-- 0 -->
<g id="0" class="node"><title>0</title>
<g id="a_0"><a xlink:href="https://github.com/otahi/network_drawer/" xlink:title="WebLB">
<path fill="azure" stroke="black" stroke-dasharray="1,5" d="M257,-363.5C257,-363.5 163,-363.5 163,-363.5 157,-363.5 151,-357.5 151,-351.5 151,-351.5 151,-316.5 151,-316.5 151,-310.5 157,-304.5 163,-304.5 163,-304.5 257,-304.5 257,-304.5 263,-304.5 269,-310.5 269,-316.5 269,-316.5 269,-351.5 269,-351.5 269,-357.5 263,-363.5 257,-363.5"/>
<polygon fill="none" stroke="black" points="161,-334 161,-357 206,-357 206,-334 161,-334"/>
<text text-anchor="start" x="164.431" y="-339.9" font-family="Helvetica,sans-Serif" font-size="14.00">80/tcp</text>
<polygon fill="none" stroke="black" points="208,-334 208,-357 259,-357 259,-334 208,-334"/>
<text text-anchor="start" x="210.538" y="-339.9" font-family="Helvetica,sans-Serif" font-size="14.00">443/tcp</text>
<polygon fill="none" stroke="black" points="161,-310 161,-332 259,-332 259,-310 161,-310"/>
<text text-anchor="start" x="187.168" y="-315" font-family="Helvetica,sans-Serif" font-size="14.00">WebLB</text>
</a>
</g>
</g>
<!-- 1 -->
<g id="1" class="node"><title>1</title>
<g id="a_1"><a xlink:title="Web001">
<polygon fill="none" stroke="black" points="191,-267.5 113,-267.5 113,-208.5 191,-208.5 191,-267.5"/>
<polygon fill="none" stroke="black" points="123,-238 123,-261 181,-261 181,-238 123,-238"/>
<text text-anchor="start" x="132.931" y="-243.9" font-family="Helvetica,sans-Serif" font-size="14.00">80/tcp</text>
<polygon fill="none" stroke="black" points="123,-214 123,-236 181,-236 181,-214 123,-214"/>
<text text-anchor="start" x="126.051" y="-219" font-family="Helvetica,sans-Serif" font-size="14.00">Web001</text>
</a>
</g>
</g>
<!-- 0&#45;&gt;1 -->
<g id="3" class="edge"><title>0&#45;&gt;1:p80tcp</title>
<path fill="none" stroke="blue" d="M205.868,-304.436C202.707,-286.805 197.673,-265.712 190.554,-255.75"/>
<polygon fill="blue" stroke="blue" points="192.252,-252.674 182,-250 188.347,-258.484 192.252,-252.674"/>
</g>
<!-- 2 -->
<g id="2" class="node"><title>2</title>
<g id="a_2"><a xlink:title="Web002">
<polygon fill="none" stroke="black" points="287,-267.5 209,-267.5 209,-208.5 287,-208.5 287,-267.5"/>
<polygon fill="none" stroke="black" points="219,-238 219,-261 277,-261 277,-238 219,-238"/>
<text text-anchor="start" x="228.931" y="-243.9" font-family="Helvetica,sans-Serif" font-size="14.00">80/tcp</text>
<polygon fill="none" stroke="black" points="219,-214 219,-236 277,-236 277,-214 219,-214"/>
<text text-anchor="start" x="222.051" y="-219" font-family="Helvetica,sans-Serif" font-size="14.00">Web002</text>
</a>
</g>
</g>
<!-- 0&#45;&gt;2 -->
<g id="4" class="edge"><title>0&#45;&gt;2:p80tcp</title>
<path fill="none" stroke="blue" d="M233.417,-304.387C239.465,-294.88 244.881,-283.755 247.025,-272.217"/>
<polygon fill="blue" stroke="blue" points="250.534,-272.287 248,-262 243.566,-271.622 250.534,-272.287"/>
</g>
<!-- 3 -->
<g id="3" class="node"><title>3</title>
<g id="a_3"><a xlink:title="AppLB">
<path fill="azure" stroke="black" stroke-dasharray="1,5" d="M218.25,-171.5C218.25,-171.5 131.75,-171.5 131.75,-171.5 125.75,-171.5 119.75,-165.5 119.75,-159.5 119.75,-159.5 119.75,-124.5 119.75,-124.5 119.75,-118.5 125.75,-112.5 131.75,-112.5 131.75,-112.5 218.25,-112.5 218.25,-112.5 224.25,-112.5 230.25,-118.5 230.25,-124.5 230.25,-124.5 230.25,-159.5 230.25,-159.5 230.25,-165.5 224.25,-171.5 218.25,-171.5"/>
<polygon fill="none" stroke="black" points="130,-142 130,-165 175,-165 175,-142 130,-142"/>
<text text-anchor="start" x="133.431" y="-147.9" font-family="Helvetica,sans-Serif" font-size="14.00">80/tcp</text>
<polygon fill="none" stroke="black" points="177,-142 177,-165 221,-165 221,-142 177,-142"/>
<text text-anchor="start" x="179.931" y="-147.9" font-family="Helvetica,sans-Serif" font-size="14.00">25/tcp</text>
<polygon fill="none" stroke="black" points="130,-118 130,-140 221,-140 221,-118 130,-118"/>
<text text-anchor="start" x="154.483" y="-123" font-family="Helvetica,sans-Serif" font-size="14.00">AppLB</text>
</a>
</g>
</g>
<!-- 1&#45;&gt;3 -->
<g id="5" class="edge"><title>1&#45;&gt;3:p80tcp</title>
<path fill="none" stroke="blue" d="M152,-208.327C152,-198.527 152,-187.271 152,-176.333"/>
<polygon fill="blue" stroke="blue" points="155.5,-176 152,-166 148.5,-176 155.5,-176"/>
</g>
<!-- 2&#45;&gt;3 -->
<g id="6" class="edge"><title>2&#45;&gt;3:p80tcp</title>
<path fill="none" stroke="blue" d="M208.953,-212.407C189.435,-199.62 167.869,-184.611 157.789,-174.584"/>
<polygon fill="blue" stroke="blue" points="160.493,-172.334 152,-166 154.69,-176.248 160.493,-172.334"/>
</g>
<!-- 4 -->
<g id="4" class="node"><title>4</title>
<g id="a_4"><a xlink:title="App001">
<polygon fill="none" stroke="black" points="223.25,-75.5 112.75,-75.5 112.75,-16.5 223.25,-16.5 223.25,-75.5"/>
<polygon fill="none" stroke="black" points="123,-46 123,-69 168,-69 168,-46 123,-46"/>
<text text-anchor="start" x="126.431" y="-51.9" font-family="Helvetica,sans-Serif" font-size="14.00">80/tcp</text>
<polygon fill="none" stroke="black" points="170,-46 170,-69 214,-69 214,-46 170,-46"/>
<text text-anchor="start" x="172.931" y="-51.9" font-family="Helvetica,sans-Serif" font-size="14.00">25/tcp</text>
<polygon fill="none" stroke="black" points="123,-22 123,-44 214,-44 214,-22 123,-22"/>
<text text-anchor="start" x="144.366" y="-27" font-family="Helvetica,sans-Serif" font-size="14.00">App001</text>
</a>
</g>
</g>
<!-- 3&#45;&gt;4 -->
<g id="8" class="edge"><title>3&#45;&gt;4:p80tcp</title>
<path fill="none" stroke="blue" d="M156.857,-112.424C151.97,-102.736 147.55,-91.4614 145.798,-80.0393"/>
<polygon fill="blue" stroke="blue" points="149.281,-79.6914 145,-70 142.303,-80.2458 149.281,-79.6914"/>
</g>
<!-- 5 -->
<g id="5" class="node"><title>5</title>
<g id="a_5"><a xlink:title="App002">
<polygon fill="none" stroke="black" points="352.25,-75.5 241.75,-75.5 241.75,-16.5 352.25,-16.5 352.25,-75.5"/>
<polygon fill="none" stroke="black" points="252,-46 252,-69 297,-69 297,-46 252,-46"/>
<text text-anchor="start" x="255.431" y="-51.9" font-family="Helvetica,sans-Serif" font-size="14.00">80/tcp</text>
<polygon fill="none" stroke="black" points="299,-46 299,-69 343,-69 343,-46 299,-46"/>
<text text-anchor="start" x="301.931" y="-51.9" font-family="Helvetica,sans-Serif" font-size="14.00">25/tcp</text>
<polygon fill="none" stroke="black" points="252,-22 252,-44 343,-44 343,-22 252,-22"/>
<text text-anchor="start" x="273.366" y="-27" font-family="Helvetica,sans-Serif" font-size="14.00">App002</text>
</a>
</g>
</g>
<!-- 3&#45;&gt;5 -->
<g id="10" class="edge"><title>3&#45;&gt;5:p80tcp</title>
<path fill="none" stroke="blue" d="M200.271,-112.436C215.3,-95.5548 233.338,-75.5005 243.382,-65.081"/>
<polygon fill="blue" stroke="blue" points="246.058,-67.3718 251,-58 241.293,-62.2447 246.058,-67.3718"/>
</g>
<!-- 6 -->
<g id="6" class="node"><title>6</title>
<g id="a_6"><a xlink:title="Browser">
<polygon fill="none" stroke="black" points="272,-436 196,-436 196,-400 272,-400 272,-436"/>
<text text-anchor="start" x="208.328" y="-411.9" font-family="Helvetica,sans-Serif" font-size="14.00">Browser</text>
</a>
</g>
</g>
<!-- 6&#45;&gt;0 -->
<g id="1" class="edge"><title>6&#45;&gt;0:p443tcp</title>
<path fill="none" stroke="black" d="M234,-399.96C234,-390.938 234,-379.421 234,-368.174"/>
<polygon fill="black" stroke="black" points="237.5,-368 234,-358 230.5,-368 237.5,-368"/>
</g>
<!-- 7 -->
<g id="7" class="node"><title>7</title>
<g id="a_7"><a xlink:title="Mail Server">
<polygon fill="none" stroke="black" points="94.25,-256 -0.25,-256 -0.25,-220 94.25,-220 94.25,-256"/>
<text text-anchor="start" x="12.1035" y="-231.9" font-family="Helvetica,sans-Serif" font-size="14.00">Mail Server</text>
</a>
</g>
</g>
<!-- 7&#45;&gt;3 -->
<g id="2" class="edge"><title>7&#45;&gt;3:p25tcp</title>
<path fill="none" stroke="green" d="M76.9987,-219.912C84.44,-215.86 92.4478,-211.657 100,-208 139.489,-188.878 189.903,-209.747 197.908,-176.327"/>
<polygon fill="green" stroke="green" points="201.429,-176.313 199,-166 194.468,-175.576 201.429,-176.313"/>
</g>
</g>
</svg>
