<?xml version="1.0" encoding="UTF-8" standalone="no"?>
<!DOCTYPE svg PUBLIC "-//W3C//DTD SVG 1.1//EN"
 "http://www.w3.org/Graphics/SVG/1.1/DTD/svg11.dtd">
<!-- Generated by graphviz version 2.34.0 (20140129.0153)
 -->
<!-- Title: simple Pages: 1 -->
<svg width="644pt" height="572pt"
 viewBox="0.00 0.00 644.27 572.00" xmlns="http://www.w3.org/2000/svg" xmlns:xlink="http://www.w3.org/1999/xlink">
<g id="graph0" class="graph" transform="scale(1 1) rotate(0) translate(4 568)">
<title>simple</title>
<polygon fill="white" stroke="white" points="-4,4 -4,-568 640.269,-568 640.269,4 -4,4"/>
<g id="clust1" class="cluster"><title>cluster1</title>
<polygon fill="none" stroke="black" points="109,-314 109,-518 401,-518 401,-314 109,-314"/>
<text text-anchor="middle" x="255" y="-500" font-family="Helvetica,sans-Serif" font-size="14.00">Web</text>
</g>
<g id="clust2" class="cluster"><title>cluster3</title>
<polygon fill="none" stroke="black" points="409,-118 409,-416 599,-416 599,-118 409,-118"/>
<text text-anchor="middle" x="504" y="-398" font-family="Helvetica,sans-Serif" font-size="14.00">App</text>
</g>
<g id="clust3" class="cluster"><title>cluster4</title>
<polygon fill="none" stroke="black" points="478,-8 478,-110 576,-110 576,-8 478,-8"/>
<text text-anchor="middle" x="527" y="-92" font-family="Helvetica,sans-Serif" font-size="14.00">DB</text>
</g>
<!-- 3 -->
<g id="node1" class="node"><title>3</title>
<polygon fill="none" stroke="black" points="128,-353 128,-376 186,-376 186,-353 128,-353"/>
<text text-anchor="start" x="137.931" y="-358.9" font-family="Helvetica,sans-Serif" font-size="14.00">80/tcp</text>
<polygon fill="none" stroke="black" points="128,-329 128,-351 186,-351 186,-329 128,-329"/>
<text text-anchor="start" x="131.051" y="-334" font-family="Helvetica,sans-Serif" font-size="14.00">Web003</text>
<polygon fill="none" stroke="black" points="125,-326.5 125,-379.5 189,-379.5 189,-326.5 125,-326.5"/>
</g>
<!-- 9 -->
<g id="node7" class="node"><title>9</title>
<polygon fill="none" stroke="blue" points="428,-255 428,-278 473,-278 473,-255 428,-255"/>
<text text-anchor="start" x="431.431" y="-260.9" font-family="Helvetica,sans-Serif" font-size="14.00">80/tcp</text>
<polygon fill="none" stroke="blue" points="475,-255 475,-278 534,-278 534,-255 475,-255"/>
<text text-anchor="start" x="477.645" y="-260.9" font-family="Helvetica,sans-Serif" font-size="14.00">8080/tcp</text>
<polygon fill="none" stroke="blue" points="536,-255 536,-278 580,-278 580,-255 536,-255"/>
<text text-anchor="start" x="538.931" y="-260.9" font-family="Helvetica,sans-Serif" font-size="14.00">25/tcp</text>
<polygon fill="none" stroke="blue" points="428,-231 428,-253 580,-253 580,-231 428,-231"/>
<text text-anchor="start" x="482.983" y="-236" font-family="Helvetica,sans-Serif" font-size="14.00">AppLB</text>
<polygon fill="none" stroke="blue" points="425,-228.5 425,-281.5 583,-281.5 583,-228.5 425,-228.5"/>
</g>
<!-- 3&#45;&gt;9 -->
<g id="edge11" class="edge"><title>3&#45;&gt;9:p80tcp</title>
<path fill="none" stroke="black" d="M191.361,-322.371C196.08,-319.21 201.02,-316.312 206,-314 293.971,-273.165 324.493,-267.367 416.946,-267.018"/>
<polygon fill="black" stroke="black" points="417.006,-270.518 427,-267 416.994,-263.518 417.006,-270.518"/>
</g>
<!-- 4 -->
<g id="node2" class="node"><title>4</title>
<polygon fill="none" stroke="black" points="226,-353 226,-376 284,-376 284,-353 226,-353"/>
<text text-anchor="start" x="235.931" y="-358.9" font-family="Helvetica,sans-Serif" font-size="14.00">80/tcp</text>
<polygon fill="none" stroke="black" points="226,-329 226,-351 284,-351 284,-329 226,-329"/>
<text text-anchor="start" x="229.051" y="-334" font-family="Helvetica,sans-Serif" font-size="14.00">Web002</text>
<polygon fill="none" stroke="black" points="223,-326.5 223,-379.5 287,-379.5 287,-326.5 223,-326.5"/>
</g>
<!-- 4&#45;&gt;9 -->
<g id="edge8" class="edge"><title>4&#45;&gt;9:p80tcp</title>
<path fill="none" stroke="black" d="M290.728,-322.271C321.68,-299.387 368.904,-271.058 416.78,-267.396"/>
<polygon fill="black" stroke="black" points="417.143,-270.885 427,-267 416.872,-263.89 417.143,-270.885"/>
</g>
<!-- 4&#45;&gt;9 -->
<g id="edge10" class="edge"><title>4&#45;&gt;9:p8080tcp</title>
<path fill="none" stroke="black" d="M289.001,-322.376C293.818,-319.173 298.88,-316.262 304,-314 342.07,-297.181 479.622,-319.953 501.933,-288.731"/>
<polygon fill="black" stroke="black" points="505.332,-289.59 505,-279 498.655,-287.485 505.332,-289.59"/>
</g>
<!-- 5 -->
<g id="node3" class="node"><title>5</title>
<polygon fill="none" stroke="black" points="324,-353 324,-376 382,-376 382,-353 324,-353"/>
<text text-anchor="start" x="333.931" y="-358.9" font-family="Helvetica,sans-Serif" font-size="14.00">80/tcp</text>
<polygon fill="none" stroke="black" points="324,-329 324,-351 382,-351 382,-329 324,-329"/>
<text text-anchor="start" x="327.051" y="-334" font-family="Helvetica,sans-Serif" font-size="14.00">Web001</text>
<polygon fill="none" stroke="black" points="321,-326.5 321,-379.5 385,-379.5 385,-326.5 321,-326.5"/>
</g>
<!-- 5&#45;&gt;9 -->
<g id="edge7" class="edge"><title>5&#45;&gt;9:p80tcp</title>
<path fill="none" stroke="black" d="M364.531,-322.271C374.842,-300.632 392.15,-274.123 416.796,-268.208"/>
<polygon fill="black" stroke="black" points="417.481,-271.651 427,-267 416.658,-264.7 417.481,-271.651"/>
</g>
<!-- 5&#45;&gt;9 -->
<g id="edge9" class="edge"><title>5&#45;&gt;9:p8080tcp</title>
<path fill="none" stroke="black" d="M390.792,-322.452C395.452,-319.393 400.249,-316.497 405,-314 443.263,-293.891 495.544,-320.887 503.864,-289.027"/>
<polygon fill="black" stroke="black" points="507.352,-289.33 505,-279 500.396,-288.542 507.352,-289.33"/>
</g>
<!-- 6 -->
<g id="node4" class="node"><title>6</title>
<polygon fill="none" stroke="blue" points="206,-455 206,-478 251,-478 251,-455 206,-455"/>
<text text-anchor="start" x="209.431" y="-460.9" font-family="Helvetica,sans-Serif" font-size="14.00">80/tcp</text>
<polygon fill="none" stroke="blue" points="253,-455 253,-478 304,-478 304,-455 253,-455"/>
<text text-anchor="start" x="255.538" y="-460.9" font-family="Helvetica,sans-Serif" font-size="14.00">443/tcp</text>
<polygon fill="none" stroke="blue" points="206,-431 206,-453 304,-453 304,-431 206,-431"/>
<text text-anchor="start" x="232.168" y="-436" font-family="Helvetica,sans-Serif" font-size="14.00">WebLB</text>
<polygon fill="none" stroke="blue" points="203,-428.5 203,-481.5 307,-481.5 307,-428.5 203,-428.5"/>
</g>
<!-- 6&#45;&gt;3 -->
<g id="edge6" class="edge"><title>6&#45;&gt;3:p80tcp</title>
<path fill="none" stroke="black" d="M213.254,-424.486C210.624,-421.785 208.168,-418.949 206,-416 194.472,-400.317 204.856,-376.85 196.749,-368.282"/>
<polygon fill="black" stroke="black" points="197.594,-364.873 187,-365 195.361,-371.507 197.594,-364.873"/>
</g>
<!-- 6&#45;&gt;4 -->
<g id="edge5" class="edge"><title>6&#45;&gt;4:p80tcp</title>
<path fill="none" stroke="black" d="M255,-424.383C255,-413.088 255,-399.854 255,-387.09"/>
<polygon fill="black" stroke="black" points="258.5,-387 255,-377 251.5,-387 258.5,-387"/>
</g>
<!-- 6&#45;&gt;5 -->
<g id="edge4" class="edge"><title>6&#45;&gt;5:p80tcp</title>
<path fill="none" stroke="black" d="M296.746,-424.486C299.376,-421.785 301.832,-418.949 304,-416 315.528,-400.317 305.144,-376.85 313.251,-368.282"/>
<polygon fill="black" stroke="black" points="314.639,-371.507 323,-365 312.406,-364.873 314.639,-371.507"/>
</g>
<!-- 7 -->
<g id="node5" class="node"><title>7</title>
<polygon fill="none" stroke="black" points="428,-353 428,-376 473,-376 473,-353 428,-353"/>
<text text-anchor="start" x="431.431" y="-358.9" font-family="Helvetica,sans-Serif" font-size="14.00">80/tcp</text>
<polygon fill="none" stroke="black" points="475,-353 475,-376 534,-376 534,-353 475,-353"/>
<text text-anchor="start" x="477.645" y="-358.9" font-family="Helvetica,sans-Serif" font-size="14.00">8080/tcp</text>
<polygon fill="none" stroke="black" points="536,-353 536,-376 580,-376 580,-353 536,-353"/>
<text text-anchor="start" x="538.931" y="-358.9" font-family="Helvetica,sans-Serif" font-size="14.00">25/tcp</text>
<polygon fill="none" stroke="black" points="428,-329 428,-351 580,-351 580,-329 428,-329"/>
<text text-anchor="start" x="479.866" y="-334" font-family="Helvetica,sans-Serif" font-size="14.00">App002</text>
<polygon fill="none" stroke="black" points="425,-326.5 425,-379.5 583,-379.5 583,-326.5 425,-326.5"/>
</g>
<!-- 7&#45;&gt;9 -->
<g id="edge13" class="edge"><title>7&#45;&gt;9:p8080tcp</title>
<path fill="none" stroke="black" d="M504.593,-322.167C504.758,-312.042 504.909,-300.439 504.971,-289.185"/>
<polygon fill="black" stroke="black" points="508.471,-289.01 505,-279 501.471,-288.99 508.471,-289.01"/>
</g>
<!-- 10 -->
<g id="node8" class="node"><title>10</title>
<polygon fill="none" stroke="black" points="497,-47 497,-70 557,-70 557,-47 497,-47"/>
<text text-anchor="start" x="500.145" y="-52.9" font-family="Helvetica,sans-Serif" font-size="14.00">3306/tcp</text>
<polygon fill="none" stroke="black" points="497,-23 497,-45 557,-45 557,-23 497,-23"/>
<text text-anchor="start" x="505.597" y="-28" font-family="Helvetica,sans-Serif" font-size="14.00">DB001</text>
<polygon fill="none" stroke="black" points="494,-20.5 494,-73.5 560,-73.5 560,-20.5 494,-20.5"/>
</g>
<!-- 7&#45;&gt;10 -->
<g id="edge21" class="edge"><title>7&#45;&gt;10:p3306tcp</title>
<path fill="none" stroke="black" d="M566.06,-322.319C579.655,-312.725 592.279,-300.678 600,-286 646.133,-198.299 659.683,-68.2572 568.119,-59.4701"/>
<polygon fill="black" stroke="black" points="568.152,-55.9679 558,-59 567.827,-62.9604 568.152,-55.9679"/>
</g>
<!-- 8 -->
<g id="node6" class="node"><title>8</title>
<polygon fill="none" stroke="black" points="428,-157 428,-180 473,-180 473,-157 428,-157"/>
<text text-anchor="start" x="431.431" y="-162.9" font-family="Helvetica,sans-Serif" font-size="14.00">80/tcp</text>
<polygon fill="none" stroke="black" points="475,-157 475,-180 534,-180 534,-157 475,-157"/>
<text text-anchor="start" x="477.645" y="-162.9" font-family="Helvetica,sans-Serif" font-size="14.00">8080/tcp</text>
<polygon fill="none" stroke="black" points="536,-157 536,-180 580,-180 580,-157 536,-157"/>
<text text-anchor="start" x="538.931" y="-162.9" font-family="Helvetica,sans-Serif" font-size="14.00">25/tcp</text>
<polygon fill="none" stroke="black" points="428,-133 428,-155 580,-155 580,-133 428,-133"/>
<text text-anchor="start" x="479.866" y="-138" font-family="Helvetica,sans-Serif" font-size="14.00">App001</text>
<polygon fill="none" stroke="black" points="425,-130.5 425,-183.5 583,-183.5 583,-130.5 425,-130.5"/>
</g>
<!-- 8&#45;&gt;9 -->
<g id="edge12" class="edge"><title>8&#45;&gt;9:p8080tcp</title>
<path fill="none" stroke="black" d="M559.002,-187.684C571.834,-197.442 583.833,-209.567 591,-224 601.674,-245.496 607.872,-260.931 591,-278 566.858,-302.425 516.678,-314.623 506.734,-289.128"/>
<polygon fill="black" stroke="black" points="510.137,-288.266 505,-279 503.238,-289.447 510.137,-288.266"/>
</g>
<!-- 8&#45;&gt;10 -->
<g id="edge20" class="edge"><title>8&#45;&gt;10:p3306tcp</title>
<path fill="none" stroke="black" d="M516.173,-126.237C520.699,-113.049 525.085,-96.9813 526.515,-81.253"/>
<polygon fill="black" stroke="black" points="530.024,-81.1542 527,-71 523.032,-80.8235 530.024,-81.1542"/>
</g>
<!-- 9&#45;&gt;7 -->
<g id="edge17" class="edge"><title>9&#45;&gt;7:p25tcp</title>
<path fill="none" stroke="black" d="M559.002,-285.684C571.834,-295.442 583.833,-307.567 591,-322 601.674,-343.496 607.712,-358.774 591,-376 583.976,-383.24 571.012,-387.933 563.596,-385.391"/>
<polygon fill="black" stroke="black" points="566.46,-383.378 558,-377 560.636,-387.262 566.46,-383.378"/>
</g>
<!-- 9&#45;&gt;7 -->
<g id="edge18" class="edge"><title>9&#45;&gt;7:p80tcp</title>
<path fill="none" stroke="black" d="M448.998,-285.684C436.166,-295.442 424.167,-307.567 417,-322 406.326,-343.496 400.288,-358.774 417,-376 424.024,-383.24 436.988,-387.933 444.404,-385.391"/>
<polygon fill="black" stroke="black" points="447.364,-387.262 450,-377 441.54,-383.378 447.364,-387.262"/>
</g>
<!-- 9&#45;&gt;7 -->
<g id="edge19" class="edge"><title>9&#45;&gt;7:p8080tcp</title>
<path fill="none" stroke="black" d="M559.002,-285.684C571.834,-295.442 583.833,-307.567 591,-322 601.674,-343.496 607.872,-358.931 591,-376 566.858,-400.425 516.678,-412.623 506.734,-387.128"/>
<polygon fill="black" stroke="black" points="510.137,-386.266 505,-377 503.238,-387.447 510.137,-386.266"/>
</g>
<!-- 9&#45;&gt;8 -->
<g id="edge14" class="edge"><title>9&#45;&gt;8:p25tcp</title>
<path fill="none" stroke="black" d="M538.81,-224.342C547.054,-214.782 554.236,-203.433 556.899,-191.093"/>
<polygon fill="black" stroke="black" points="560.395,-191.321 558,-181 553.436,-190.562 560.395,-191.321"/>
</g>
<!-- 9&#45;&gt;8 -->
<g id="edge15" class="edge"><title>9&#45;&gt;8:p80tcp</title>
<path fill="none" stroke="black" d="M469.19,-224.342C460.946,-214.782 453.764,-203.433 451.101,-191.093"/>
<polygon fill="black" stroke="black" points="454.564,-190.562 450,-181 447.605,-191.321 454.564,-190.562"/>
</g>
<!-- 9&#45;&gt;8 -->
<g id="edge16" class="edge"><title>9&#45;&gt;8:p8080tcp</title>
<path fill="none" stroke="black" d="M504.593,-224.167C504.758,-214.042 504.909,-202.439 504.971,-191.185"/>
<polygon fill="black" stroke="black" points="508.471,-191.01 505,-181 501.471,-190.99 508.471,-191.01"/>
</g>
<!-- 1 -->
<g id="node9" class="node"><title>1</title>
<polygon fill="none" stroke="black" points="11,-341 11,-364 88,-364 88,-341 11,-341"/>
<text text-anchor="start" x="14.1035" y="-346.9" font-family="Helvetica,sans-Serif" font-size="14.00">Mail Server</text>
<polygon fill="none" stroke="black" points="7.5,-338.5 7.5,-367.5 90.5,-367.5 90.5,-338.5 7.5,-338.5"/>
</g>
<!-- 1&#45;&gt;9 -->
<g id="edge3" class="edge"><title>1&#45;&gt;9:p25tcp</title>
<path fill="none" stroke="black" d="M69.3841,-334.375C79.4319,-326.726 92.1359,-318.502 105,-314 149.578,-298.399 507.234,-325.541 553.153,-287.767"/>
<polygon fill="black" stroke="black" points="556.224,-289.445 558,-279 550.098,-286.058 556.224,-289.445"/>
</g>
<!-- 2 -->
<g id="node10" class="node"><title>2</title>
<polygon fill="none" stroke="black" points="225,-533 225,-556 283,-556 283,-533 225,-533"/>
<text text-anchor="start" x="228.328" y="-538.9" font-family="Helvetica,sans-Serif" font-size="14.00">Browser</text>
<polygon fill="none" stroke="black" points="222,-530.5 222,-559.5 286,-559.5 286,-530.5 222,-530.5"/>
</g>
<!-- 2&#45;&gt;6 -->
<g id="edge1" class="edge"><title>2&#45;&gt;6:p80tcp</title>
<path fill="none" stroke="black" d="M242.672,-526.266C237.088,-516.177 231.087,-502.881 228.879,-489.347"/>
<polygon fill="black" stroke="black" points="232.334,-488.668 228,-479 225.359,-489.26 232.334,-488.668"/>
</g>
<!-- 2&#45;&gt;6 -->
<g id="edge2" class="edge"><title>2&#45;&gt;6:p443tcp</title>
<path fill="none" stroke="black" d="M264.747,-526.483C270.2,-516.261 276.106,-502.704 278.205,-488.979"/>
<polygon fill="black" stroke="black" points="281.695,-489.246 279,-479 274.717,-488.691 281.695,-489.246"/>
</g>
</g>
</svg>
