<?xml version="1.0" encoding="UTF-8" standalone="no"?>
<!DOCTYPE svg PUBLIC "-//W3C//DTD SVG 1.1//EN"
 "http://www.w3.org/Graphics/SVG/1.1/DTD/svg11.dtd">
<!-- Generated by graphviz version 2.34.0 (20140129.0153)
 -->
<!-- Title: simple Pages: 1 -->
<svg width="370pt" height="346pt"
 viewBox="0.00 0.00 370.00 346.00" xmlns="http://www.w3.org/2000/svg" xmlns:xlink="http://www.w3.org/1999/xlink">
<g id="graph0" class="graph" transform="scale(1 1) rotate(0) translate(4 342)">
<title>simple</title>
<polygon fill="white" stroke="white" points="-4,4 -4,-342 366,-342 366,4 -4,4"/>
<g id="clust1" class="cluster"><title>cluster_Web</title>
<polygon fill="none" stroke="black" points="8,-228 8,-330 286,-330 286,-228 8,-228"/>
<text text-anchor="middle" x="147" y="-312" font-family="Times,serif" font-size="14.00">Web</text>
</g>
<g id="clust2" class="cluster"><title>cluster_App</title>
<polygon fill="none" stroke="black" points="12,-118 12,-220 273,-220 273,-118 12,-118"/>
<text text-anchor="middle" x="142.5" y="-202" font-family="Times,serif" font-size="14.00">App</text>
</g>
<g id="clust3" class="cluster"><title>cluster_DB</title>
<polygon fill="none" stroke="black" points="92,-8 92,-110 190,-110 190,-8 92,-8"/>
<text text-anchor="middle" x="141" y="-92" font-family="Times,serif" font-size="14.00">DB</text>
</g>
<!-- 1 -->
<g id="node1" class="node"><title>1</title>
<polygon fill="none" stroke="black" points="214,-267 214,-290 267,-290 267,-267 214,-267"/>
<text text-anchor="start" x="221.253" y="-272.9" font-family="Times,serif" font-size="14.00"> 80/tcp</text>
<polygon fill="none" stroke="black" points="214,-243 214,-265 267,-265 267,-243 214,-243"/>
<text text-anchor="start" x="217.343" y="-248" font-family="Times,serif" font-size="14.00">Web003</text>
<polygon fill="none" stroke="black" points="210.5,-240.5 210.5,-293.5 269.5,-293.5 269.5,-240.5 210.5,-240.5"/>
</g>
<!-- 4 -->
<g id="node4" class="node"><title>4</title>
<polygon fill="none" stroke="black" points="163,-157 163,-180 208,-180 208,-157 163,-157"/>
<text text-anchor="start" x="166.253" y="-162.9" font-family="Times,serif" font-size="14.00"> 80/tcp</text>
<polygon fill="none" stroke="black" points="210,-157 210,-180 254,-180 254,-157 210,-157"/>
<text text-anchor="start" x="212.753" y="-162.9" font-family="Times,serif" font-size="14.00"> 25/tcp</text>
<polygon fill="none" stroke="black" points="163,-133 163,-155 254,-155 254,-133 163,-133"/>
<text text-anchor="start" x="185.945" y="-138" font-family="Times,serif" font-size="14.00">App002</text>
<polygon fill="none" stroke="black" points="159.5,-130.5 159.5,-183.5 256.5,-183.5 256.5,-130.5 159.5,-130.5"/>
</g>
<!-- 1&#45;&gt;4 -->
<g id="edge3" class="edge"><title>1&#45;&gt;4:p80tcp</title>
<path fill="none" stroke="black" d="M208.964,-236.223C198.535,-223.57 188.796,-207.852 185.881,-191.023"/>
<polygon fill="black" stroke="black" points="189.363,-190.655 185,-181 182.389,-191.268 189.363,-190.655"/>
</g>
<!-- 2 -->
<g id="node2" class="node"><title>2</title>
<polygon fill="none" stroke="black" points="121,-267 121,-290 174,-290 174,-267 121,-267"/>
<text text-anchor="start" x="128.253" y="-272.9" font-family="Times,serif" font-size="14.00"> 80/tcp</text>
<polygon fill="none" stroke="black" points="121,-243 121,-265 174,-265 174,-243 121,-243"/>
<text text-anchor="start" x="124.343" y="-248" font-family="Times,serif" font-size="14.00">Web002</text>
<polygon fill="none" stroke="black" points="117.5,-240.5 117.5,-293.5 176.5,-293.5 176.5,-240.5 117.5,-240.5"/>
</g>
<!-- 2&#45;&gt;4 -->
<g id="edge2" class="edge"><title>2&#45;&gt;4:p80tcp</title>
<path fill="none" stroke="black" d="M167.557,-236.335C174.972,-223.319 182.068,-207.326 184.288,-191.105"/>
<polygon fill="black" stroke="black" points="187.789,-191.221 185,-181 180.806,-190.729 187.789,-191.221"/>
</g>
<!-- 3 -->
<g id="node3" class="node"><title>3</title>
<polygon fill="none" stroke="black" points="28,-267 28,-290 81,-290 81,-267 28,-267"/>
<text text-anchor="start" x="35.2534" y="-272.9" font-family="Times,serif" font-size="14.00"> 80/tcp</text>
<polygon fill="none" stroke="black" points="28,-243 28,-265 81,-265 81,-243 28,-243"/>
<text text-anchor="start" x="31.3433" y="-248" font-family="Times,serif" font-size="14.00">Web001</text>
<polygon fill="none" stroke="black" points="24.5,-240.5 24.5,-293.5 83.5,-293.5 83.5,-240.5 24.5,-240.5"/>
</g>
<!-- 5 -->
<g id="node5" class="node"><title>5</title>
<polygon fill="none" stroke="black" points="32,-157 32,-180 77,-180 77,-157 32,-157"/>
<text text-anchor="start" x="35.2534" y="-162.9" font-family="Times,serif" font-size="14.00"> 80/tcp</text>
<polygon fill="none" stroke="black" points="79,-157 79,-180 123,-180 123,-157 79,-157"/>
<text text-anchor="start" x="81.7534" y="-162.9" font-family="Times,serif" font-size="14.00"> 25/tcp</text>
<polygon fill="none" stroke="black" points="32,-133 32,-155 123,-155 123,-133 32,-133"/>
<text text-anchor="start" x="54.9448" y="-138" font-family="Times,serif" font-size="14.00">App001</text>
<polygon fill="none" stroke="black" points="28.5,-130.5 28.5,-183.5 125.5,-183.5 125.5,-130.5 28.5,-130.5"/>
</g>
<!-- 3&#45;&gt;5 -->
<g id="edge1" class="edge"><title>3&#45;&gt;5:p80tcp</title>
<path fill="none" stroke="black" d="M54,-236.497C54,-223.082 54,-206.744 54,-191.123"/>
<polygon fill="black" stroke="black" points="57.5001,-191 54,-181 50.5001,-191 57.5001,-191"/>
</g>
<!-- 6 -->
<g id="node6" class="node"><title>6</title>
<polygon fill="none" stroke="black" points="112,-47 112,-70 171,-70 171,-47 112,-47"/>
<text text-anchor="start" x="115.253" y="-52.9" font-family="Times,serif" font-size="14.00"> 3306/tcp</text>
<polygon fill="none" stroke="black" points="112,-23 112,-45 171,-45 171,-23 112,-23"/>
<text text-anchor="start" x="121.276" y="-28" font-family="Times,serif" font-size="14.00">DB001</text>
<polygon fill="none" stroke="black" points="108.5,-20.5 108.5,-73.5 173.5,-73.5 173.5,-20.5 108.5,-20.5"/>
</g>
<!-- 4&#45;&gt;6 -->
<g id="edge5" class="edge"><title>4&#45;&gt;6:p3306tcp</title>
<path fill="none" stroke="black" d="M208.773,-126.37C207.91,-101.41 202.682,-68.5497 181.894,-60.7248"/>
<polygon fill="black" stroke="black" points="182.453,-57.2694 172,-59 181.25,-64.1654 182.453,-57.2694"/>
</g>
<!-- 5&#45;&gt;6 -->
<g id="edge4" class="edge"><title>5&#45;&gt;6:p3306tcp</title>
<path fill="none" stroke="black" d="M75.6929,-126.37C76.0953,-101.521 80.6518,-68.843 100.928,-60.8311"/>
<polygon fill="black" stroke="black" points="101.787,-64.2323 111,-59 100.535,-57.3452 101.787,-64.2323"/>
</g>
<!-- 7 -->
<g id="node7" class="node"><title>7</title>
<polygon fill="none" stroke="black" points="307,-255 307,-278 352,-278 352,-255 307,-255"/>
<text text-anchor="start" x="310.448" y="-260.9" font-family="Times,serif" font-size="14.00">Router</text>
<polygon fill="none" stroke="black" points="303.5,-252.5 303.5,-281.5 354.5,-281.5 354.5,-252.5 303.5,-252.5"/>
</g>
</g>
</svg>
