<?xml version="1.0" encoding="UTF-8" standalone="no"?>
<!DOCTYPE svg PUBLIC "-//W3C//DTD SVG 1.1//EN"
 "http://www.w3.org/Graphics/SVG/1.1/DTD/svg11.dtd">
<!-- Generated by graphviz version 2.34.0 (20140129.0153)
 -->
<!-- Title: simple Pages: 1 -->
<svg width="475pt" height="568pt"
 viewBox="0.00 0.00 475.00 568.00" xmlns="http://www.w3.org/2000/svg" xmlns:xlink="http://www.w3.org/1999/xlink">
<g id="graph0" class="graph" transform="scale(1 1) rotate(0) translate(4 564)">
<title>simple</title>
<polygon fill="white" stroke="white" points="-4,4 -4,-564 471,-564 471,4 -4,4"/>
<g id="clust1" class="cluster"><title>cluster1</title>
<polygon fill="none" stroke="black" points="105,-320 105,-516 391,-516 391,-320 105,-320"/>
<text text-anchor="middle" x="248" y="-498" font-family="Helvetica,sans-Serif" font-size="14.00">Web</text>
</g>
<g id="clust2" class="cluster"><title>cluster3</title>
<polygon fill="none" stroke="black" points="81,-116 81,-312 459,-312 459,-116 81,-116"/>
<text text-anchor="middle" x="270" y="-294" font-family="Helvetica,sans-Serif" font-size="14.00">App</text>
</g>
<g id="clust3" class="cluster"><title>cluster4</title>
<polygon fill="none" stroke="black" points="222,-8 222,-108 318,-108 318,-8 222,-8"/>
<text text-anchor="middle" x="270" y="-90" font-family="Helvetica,sans-Serif" font-size="14.00">DB</text>
</g>
<!-- 3 -->
<g id="node1" class="node"><title>3</title>
<g id="a_node1"><a xlink:href="https://github.com/otahi/network_drawer/" xlink:title="WebLB">
<path fill="azure" stroke="black" stroke-dasharray="1,5" d="M295,-483.5C295,-483.5 201,-483.5 201,-483.5 195,-483.5 189,-477.5 189,-471.5 189,-471.5 189,-436.5 189,-436.5 189,-430.5 195,-424.5 201,-424.5 201,-424.5 295,-424.5 295,-424.5 301,-424.5 307,-430.5 307,-436.5 307,-436.5 307,-471.5 307,-471.5 307,-477.5 301,-483.5 295,-483.5"/>
<polygon fill="none" stroke="black" points="199,-454 199,-477 244,-477 244,-454 199,-454"/>
<text text-anchor="start" x="202.431" y="-459.9" font-family="Helvetica,sans-Serif" font-size="14.00">80/tcp</text>
<polygon fill="none" stroke="black" points="246,-454 246,-477 297,-477 297,-454 246,-454"/>
<text text-anchor="start" x="248.538" y="-459.9" font-family="Helvetica,sans-Serif" font-size="14.00">443/tcp</text>
<polygon fill="none" stroke="black" points="199,-430 199,-452 297,-452 297,-430 199,-430"/>
<text text-anchor="start" x="225.168" y="-435" font-family="Helvetica,sans-Serif" font-size="14.00">WebLB</text>
</a>
</g>
</g>
<!-- 4 -->
<g id="node2" class="node"><title>4</title>
<g id="a_node2"><a xlink:title="Web001">
<polygon fill="none" stroke="black" points="383,-387.5 305,-387.5 305,-328.5 383,-328.5 383,-387.5"/>
<polygon fill="none" stroke="black" points="315,-358 315,-381 373,-381 373,-358 315,-358"/>
<text text-anchor="start" x="324.931" y="-363.9" font-family="Helvetica,sans-Serif" font-size="14.00">80/tcp</text>
<polygon fill="none" stroke="black" points="315,-334 315,-356 373,-356 373,-334 315,-334"/>
<text text-anchor="start" x="318.051" y="-339" font-family="Helvetica,sans-Serif" font-size="14.00">Web001</text>
</a>
</g>
</g>
<!-- 3&#45;&gt;4 -->
<g id="edge4" class="edge"><title>3&#45;&gt;4:p80tcp</title>
<path fill="none" stroke="blue" d="M269.048,-424.436C281.804,-407.367 297.34,-387.054 306.537,-376.737"/>
<polygon fill="blue" stroke="blue" points="308.923,-379.299 314,-370 304.232,-374.103 308.923,-379.299"/>
</g>
<!-- 5 -->
<g id="node3" class="node"><title>5</title>
<g id="a_node3"><a xlink:title="Web002">
<polygon fill="none" stroke="black" points="287,-387.5 209,-387.5 209,-328.5 287,-328.5 287,-387.5"/>
<polygon fill="none" stroke="black" points="219,-358 219,-381 277,-381 277,-358 219,-358"/>
<text text-anchor="start" x="228.931" y="-363.9" font-family="Helvetica,sans-Serif" font-size="14.00">80/tcp</text>
<polygon fill="none" stroke="black" points="219,-334 219,-356 277,-356 277,-334 219,-334"/>
<text text-anchor="start" x="222.051" y="-339" font-family="Helvetica,sans-Serif" font-size="14.00">Web002</text>
</a>
</g>
</g>
<!-- 3&#45;&gt;5 -->
<g id="edge5" class="edge"><title>3&#45;&gt;5:p80tcp</title>
<path fill="none" stroke="blue" d="M248,-424.327C248,-414.527 248,-403.271 248,-392.333"/>
<polygon fill="blue" stroke="blue" points="251.5,-392 248,-382 244.5,-392 251.5,-392"/>
</g>
<!-- 6 -->
<g id="node4" class="node"><title>6</title>
<g id="a_node4"><a xlink:title="Web003">
<polygon fill="none" stroke="black" points="191,-387.5 113,-387.5 113,-328.5 191,-328.5 191,-387.5"/>
<polygon fill="none" stroke="black" points="123,-358 123,-381 181,-381 181,-358 123,-358"/>
<text text-anchor="start" x="132.931" y="-363.9" font-family="Helvetica,sans-Serif" font-size="14.00">80/tcp</text>
<polygon fill="none" stroke="black" points="123,-334 123,-356 181,-356 181,-334 123,-334"/>
<text text-anchor="start" x="126.051" y="-339" font-family="Helvetica,sans-Serif" font-size="14.00">Web003</text>
</a>
</g>
</g>
<!-- 3&#45;&gt;6 -->
<g id="edge6" class="edge"><title>3&#45;&gt;6:p80tcp</title>
<path fill="none" stroke="blue" d="M226.952,-424.436C214.196,-407.367 198.66,-387.054 189.463,-376.737"/>
<polygon fill="blue" stroke="blue" points="191.768,-374.103 182,-370 187.077,-379.299 191.768,-374.103"/>
</g>
<!-- 7 -->
<g id="node5" class="node"><title>7</title>
<g id="a_node5"><a xlink:title="AppLB">
<path fill="azure" stroke="black" stroke-dasharray="1,5" d="M344,-279.5C344,-279.5 196,-279.5 196,-279.5 190,-279.5 184,-273.5 184,-267.5 184,-267.5 184,-232.5 184,-232.5 184,-226.5 190,-220.5 196,-220.5 196,-220.5 344,-220.5 344,-220.5 350,-220.5 356,-226.5 356,-232.5 356,-232.5 356,-267.5 356,-267.5 356,-273.5 350,-279.5 344,-279.5"/>
<polygon fill="none" stroke="black" points="194,-250 194,-273 239,-273 239,-250 194,-250"/>
<text text-anchor="start" x="197.431" y="-255.9" font-family="Helvetica,sans-Serif" font-size="14.00">80/tcp</text>
<polygon fill="none" stroke="black" points="241,-250 241,-273 300,-273 300,-250 241,-250"/>
<text text-anchor="start" x="243.645" y="-255.9" font-family="Helvetica,sans-Serif" font-size="14.00">8080/tcp</text>
<polygon fill="none" stroke="black" points="302,-250 302,-273 346,-273 346,-250 302,-250"/>
<text text-anchor="start" x="304.931" y="-255.9" font-family="Helvetica,sans-Serif" font-size="14.00">25/tcp</text>
<polygon fill="none" stroke="black" points="194,-226 194,-248 346,-248 346,-226 194,-226"/>
<text text-anchor="start" x="248.983" y="-231" font-family="Helvetica,sans-Serif" font-size="14.00">AppLB</text>
</a>
</g>
</g>
<!-- 4&#45;&gt;7 -->
<g id="edge7" class="edge"><title>4&#45;&gt;7:p80tcp</title>
<path fill="none" stroke="blue" d="M307.95,-328.391C303.972,-325.481 299.936,-322.631 296,-320 265.099,-299.343 224.503,-312.032 217.163,-284.066"/>
<polygon fill="blue" stroke="blue" points="220.624,-283.532 216,-274 213.671,-284.336 220.624,-283.532"/>
</g>
<!-- 4&#45;&gt;7 -->
<g id="edge9" class="edge"><title>4&#45;&gt;7:p8080tcp</title>
<path fill="none" stroke="blue" d="M311.343,-328.391C296.158,-314.016 280.076,-296.928 273.767,-283.871"/>
<polygon fill="blue" stroke="blue" points="277.069,-282.684 271,-274 270.329,-284.574 277.069,-282.684"/>
</g>
<!-- 5&#45;&gt;7 -->
<g id="edge8" class="edge"><title>5&#45;&gt;7:p80tcp</title>
<path fill="none" stroke="blue" d="M231.063,-328.451C224.766,-315.693 218.664,-300.008 216.674,-284.297"/>
<polygon fill="blue" stroke="blue" points="220.146,-283.75 216,-274 213.161,-284.207 220.146,-283.75"/>
</g>
<!-- 5&#45;&gt;7 -->
<g id="edge10" class="edge"><title>5&#45;&gt;7:p8080tcp</title>
<path fill="none" stroke="blue" d="M260.039,-328.344C264.604,-315.424 269.055,-299.609 270.508,-284.108"/>
<polygon fill="blue" stroke="blue" points="274.009,-284.158 271,-274 267.018,-283.818 274.009,-284.158"/>
</g>
<!-- 6&#45;&gt;7 -->
<g id="edge11" class="edge"><title>6&#45;&gt;7:p80tcp</title>
<path fill="none" stroke="blue" d="M152.709,-328.497C154.805,-304.012 161.663,-271.464 182.96,-263.71"/>
<polygon fill="blue" stroke="blue" points="183.729,-267.129 193,-262 182.554,-260.228 183.729,-267.129"/>
</g>
<!-- 8 -->
<g id="node6" class="node"><title>8</title>
<g id="a_node6"><a xlink:title="App001">
<polygon fill="none" stroke="black" points="261,-183.5 89,-183.5 89,-124.5 261,-124.5 261,-183.5"/>
<polygon fill="none" stroke="black" points="99,-154 99,-177 144,-177 144,-154 99,-154"/>
<text text-anchor="start" x="102.431" y="-159.9" font-family="Helvetica,sans-Serif" font-size="14.00">80/tcp</text>
<polygon fill="none" stroke="black" points="146,-154 146,-177 205,-177 205,-154 146,-154"/>
<text text-anchor="start" x="148.645" y="-159.9" font-family="Helvetica,sans-Serif" font-size="14.00">8080/tcp</text>
<polygon fill="none" stroke="black" points="207,-154 207,-177 251,-177 251,-154 207,-154"/>
<text text-anchor="start" x="209.931" y="-159.9" font-family="Helvetica,sans-Serif" font-size="14.00">25/tcp</text>
<polygon fill="none" stroke="black" points="99,-130 99,-152 251,-152 251,-130 99,-130"/>
<text text-anchor="start" x="150.866" y="-135" font-family="Helvetica,sans-Serif" font-size="14.00">App001</text>
</a>
</g>
</g>
<!-- 7&#45;&gt;8 -->
<g id="edge14" class="edge"><title>7&#45;&gt;8:p25tcp</title>
<path fill="none" stroke="green" d="M244.5,-220.32C238.052,-210.894 232.306,-199.844 230.033,-188.274"/>
<polygon fill="green" stroke="green" points="233.483,-187.599 229,-178 226.518,-188.3 233.483,-187.599"/>
</g>
<!-- 7&#45;&gt;8 -->
<g id="edge15" class="edge"><title>7&#45;&gt;8:p80tcp</title>
<path fill="none" stroke="blue" d="M183.758,-237.976C154.411,-229.513 127.558,-214.576 122.035,-188.231"/>
<polygon fill="blue" stroke="blue" points="125.489,-187.597 121,-178 118.524,-188.301 125.489,-187.597"/>
</g>
<!-- 7&#45;&gt;8 -->
<g id="edge16" class="edge"><title>7&#45;&gt;8:p8080tcp</title>
<path fill="none" stroke="blue" d="M201.19,-220.289C189.656,-211.762 180.373,-201.096 177.187,-187.984"/>
<polygon fill="blue" stroke="blue" points="180.657,-187.517 176,-178 173.706,-188.343 180.657,-187.517"/>
</g>
<!-- 9 -->
<g id="node7" class="node"><title>9</title>
<g id="a_node7"><a xlink:title="App002">
<polygon fill="none" stroke="black" points="451,-183.5 279,-183.5 279,-124.5 451,-124.5 451,-183.5"/>
<polygon fill="none" stroke="black" points="289,-154 289,-177 334,-177 334,-154 289,-154"/>
<text text-anchor="start" x="292.431" y="-159.9" font-family="Helvetica,sans-Serif" font-size="14.00">80/tcp</text>
<polygon fill="none" stroke="black" points="336,-154 336,-177 395,-177 395,-154 336,-154"/>
<text text-anchor="start" x="338.645" y="-159.9" font-family="Helvetica,sans-Serif" font-size="14.00">8080/tcp</text>
<polygon fill="none" stroke="black" points="397,-154 397,-177 441,-177 441,-154 397,-154"/>
<text text-anchor="start" x="399.931" y="-159.9" font-family="Helvetica,sans-Serif" font-size="14.00">25/tcp</text>
<polygon fill="none" stroke="black" points="289,-130 289,-152 441,-152 441,-130 289,-130"/>
<text text-anchor="start" x="340.866" y="-135" font-family="Helvetica,sans-Serif" font-size="14.00">App002</text>
</a>
</g>
</g>
<!-- 7&#45;&gt;9 -->
<g id="edge17" class="edge"><title>7&#45;&gt;9:p25tcp</title>
<path fill="none" stroke="green" d="M356.242,-237.976C385.589,-229.513 412.442,-214.576 417.965,-188.231"/>
<polygon fill="green" stroke="green" points="421.476,-188.301 419,-178 414.511,-187.597 421.476,-188.301"/>
</g>
<!-- 7&#45;&gt;9 -->
<g id="edge18" class="edge"><title>7&#45;&gt;9:p80tcp</title>
<path fill="none" stroke="blue" d="M295.5,-220.32C301.948,-210.894 307.694,-199.844 309.967,-188.274"/>
<polygon fill="blue" stroke="blue" points="313.482,-188.3 311,-178 306.517,-187.599 313.482,-188.3"/>
</g>
<!-- 7&#45;&gt;9 -->
<g id="edge19" class="edge"><title>7&#45;&gt;9:p8080tcp</title>
<path fill="none" stroke="blue" d="M340.526,-220.423C352.205,-211.916 361.583,-201.241 364.801,-188.052"/>
<polygon fill="blue" stroke="blue" points="368.291,-188.344 366,-178 361.34,-187.515 368.291,-188.344"/>
</g>
<!-- 8&#45;&gt;7 -->
<g id="edge12" class="edge"><title>8&#45;&gt;7:p8080tcp</title>
<path fill="none" stroke="blue" d="M261.111,-183.513C306.252,-198.87 352.878,-215.562 356,-220 369.552,-239.267 372.558,-256.246 356,-273 332.14,-297.142 282.542,-309.207 272.714,-284.01"/>
<polygon fill="blue" stroke="blue" points="276.137,-283.266 271,-274 269.238,-284.447 276.137,-283.266"/>
</g>
<!-- 10 -->
<g id="node8" class="node"><title>10</title>
<g id="a_node8"><a xlink:title="DB001">
<polygon fill="none" stroke="black" points="310,-75.5 230,-75.5 230,-16.5 310,-16.5 310,-75.5"/>
<polygon fill="none" stroke="black" points="240,-46 240,-69 300,-69 300,-46 240,-46"/>
<text text-anchor="start" x="243.145" y="-51.9" font-family="Helvetica,sans-Serif" font-size="14.00">3306/tcp</text>
<polygon fill="none" stroke="black" points="240,-22 240,-44 300,-44 300,-22 240,-22"/>
<text text-anchor="start" x="248.597" y="-27" font-family="Helvetica,sans-Serif" font-size="14.00">DB001</text>
</a>
</g>
</g>
<!-- 8&#45;&gt;10 -->
<g id="edge20" class="edge"><title>8&#45;&gt;10:p3306tcp</title>
<path fill="none" stroke="midnightblue" d="M181.368,-124.497C188.612,-99.5746 202.955,-66.299 228.906,-59.318"/>
<polygon fill="midnightblue" stroke="midnightblue" points="229.537,-62.7654 239,-58 228.631,-55.8243 229.537,-62.7654"/>
</g>
<!-- 9&#45;&gt;7 -->
<g id="edge13" class="edge"><title>9&#45;&gt;7:p8080tcp</title>
<path fill="none" stroke="blue" d="M372.416,-183.618C377.545,-210.8 379.756,-250.726 356,-273 331.239,-296.217 282.359,-309.019 272.686,-283.981"/>
<polygon fill="blue" stroke="blue" points="276.117,-283.277 271,-274 269.215,-284.443 276.117,-283.277"/>
</g>
<!-- 9&#45;&gt;10 -->
<g id="edge21" class="edge"><title>9&#45;&gt;10:p3306tcp</title>
<path fill="none" stroke="midnightblue" d="M358.632,-124.497C351.388,-99.5746 337.045,-66.299 311.094,-59.318"/>
<polygon fill="midnightblue" stroke="midnightblue" points="311.369,-55.8243 301,-58 310.463,-62.7654 311.369,-55.8243"/>
</g>
<!-- 1 -->
<g id="node9" class="node"><title>1</title>
<g id="a_node9"><a xlink:title="Browser">
<polygon fill="none" stroke="black" points="285,-560 209,-560 209,-524 285,-524 285,-560"/>
<text text-anchor="start" x="221.328" y="-535.9" font-family="Helvetica,sans-Serif" font-size="14.00">Browser</text>
</a>
</g>
</g>
<!-- 1&#45;&gt;3 -->
<g id="edge1" class="edge"><title>1&#45;&gt;3:p80tcp</title>
<path fill="none" stroke="blue" d="M235.672,-523.857C230.088,-514.095 224.087,-501.216 221.879,-488.063"/>
<polygon fill="blue" stroke="blue" points="225.357,-487.657 221,-478 218.384,-488.267 225.357,-487.657"/>
</g>
<!-- 1&#45;&gt;3 -->
<g id="edge2" class="edge"><title>1&#45;&gt;3:p443tcp</title>
<path fill="none" stroke="black" d="M257.893,-523.8C263.261,-514.018 269.032,-501.129 271.155,-488.02"/>
<polygon fill="black" stroke="black" points="274.647,-488.259 272,-478 267.672,-487.67 274.647,-488.259"/>
</g>
<!-- 2 -->
<g id="node10" class="node"><title>2</title>
<g id="a_node10"><a xlink:title="Mail Server">
<polygon fill="none" stroke="black" points="94.25,-376 -0.25,-376 -0.25,-340 94.25,-340 94.25,-376"/>
<text text-anchor="start" x="12.1035" y="-351.9" font-family="Helvetica,sans-Serif" font-size="14.00">Mail Server</text>
</a>
</g>
</g>
<!-- 2&#45;&gt;7 -->
<g id="edge3" class="edge"><title>2&#45;&gt;7:p25tcp</title>
<path fill="none" stroke="green" d="M67.6619,-339.967C77.2759,-332.823 89.1821,-325.025 101,-320 144.108,-301.669 298.526,-321.221 321.21,-284.076"/>
<polygon fill="green" stroke="green" points="324.704,-284.571 324,-274 317.958,-282.703 324.704,-284.571"/>
</g>
</g>
</svg>
