<?xml version="1.0" encoding="UTF-8" standalone="no"?>
<!DOCTYPE svg PUBLIC "-//W3C//DTD SVG 1.1//EN"
 "http://www.w3.org/Graphics/SVG/1.1/DTD/svg11.dtd">
<!-- Generated by graphviz version 2.34.0 (20140129.0153)
 -->
<!-- Title: simple Pages: 1 -->
<svg width="336pt" height="484pt"
 viewBox="0.00 0.00 336.00 484.00" xmlns="http://www.w3.org/2000/svg" xmlns:xlink="http://www.w3.org/1999/xlink">
<g id="graph0" class="graph" transform="scale(1 1) rotate(0) translate(4 480)">
<title>simple</title>
<polygon fill="white" stroke="white" points="-4,4 -4,-480 332,-480 332,4 -4,4"/>
<g id="0" class="cluster"><title>cluster_networkdrawertop</title>
<polygon fill="none" stroke="black" points="8,-8 8,-468 320,-468 320,-8 8,-8"/>
</g>
<g id="1" class="cluster"><title>cluster_Web</title>
<polygon fill="none" stroke="black" points="122,-220 122,-416 312,-416 312,-220 122,-220"/>
<text text-anchor="middle" x="217" y="-398" font-family="Helvetica,sans-Serif" font-size="14.00">Web</text>
</g>
<g id="2" class="cluster"><title>cluster_App</title>
<polygon fill="none" stroke="black" points="39,-16 39,-212 296,-212 296,-16 39,-16"/>
<text text-anchor="middle" x="167.5" y="-194" font-family="Helvetica,sans-Serif" font-size="14.00">App</text>
</g>
<!-- 0 -->
<g id="0" class="node"><title>0</title>
<g id="a_0"><a xlink:href="https://github.com/otahi/network_drawer/" xlink:title="WebLB">
<path fill="azure" stroke="black" stroke-dasharray="1,5" d="M264,-383.5C264,-383.5 170,-383.5 170,-383.5 164,-383.5 158,-377.5 158,-371.5 158,-371.5 158,-336.5 158,-336.5 158,-330.5 164,-324.5 170,-324.5 170,-324.5 264,-324.5 264,-324.5 270,-324.5 276,-330.5 276,-336.5 276,-336.5 276,-371.5 276,-371.5 276,-377.5 270,-383.5 264,-383.5"/>
<polygon fill="none" stroke="black" points="168,-354 168,-377 213,-377 213,-354 168,-354"/>
<text text-anchor="start" x="171.431" y="-359.9" font-family="Helvetica,sans-Serif" font-size="14.00">80/tcp</text>
<polygon fill="none" stroke="black" points="215,-354 215,-377 266,-377 266,-354 215,-354"/>
<text text-anchor="start" x="217.538" y="-359.9" font-family="Helvetica,sans-Serif" font-size="14.00">443/tcp</text>
<polygon fill="none" stroke="black" points="168,-330 168,-352 266,-352 266,-330 168,-330"/>
<text text-anchor="start" x="194.168" y="-335" font-family="Helvetica,sans-Serif" font-size="14.00">WebLB</text>
</a>
</g>
</g>
<!-- 1 -->
<g id="1" class="node"><title>1</title>
<g id="a_1"><a xlink:title="Web001">
<polygon fill="none" stroke="black" points="208,-287.5 130,-287.5 130,-228.5 208,-228.5 208,-287.5"/>
<polygon fill="none" stroke="black" points="140,-258 140,-281 198,-281 198,-258 140,-258"/>
<text text-anchor="start" x="149.931" y="-263.9" font-family="Helvetica,sans-Serif" font-size="14.00">80/tcp</text>
<polygon fill="none" stroke="black" points="140,-234 140,-256 198,-256 198,-234 140,-234"/>
<text text-anchor="start" x="143.051" y="-239" font-family="Helvetica,sans-Serif" font-size="14.00">Web001</text>
</a>
</g>
</g>
<!-- 0&#45;&gt;1 -->
<g id="3" class="edge"><title>0&#45;&gt;1:p80tcp</title>
<path fill="none" stroke="blue" d="M216.141,-324.436C215.045,-307.18 212.572,-286.608 207.026,-276.401"/>
<polygon fill="blue" stroke="blue" points="209,-273.499 199,-270 204.636,-278.972 209,-273.499"/>
</g>
<!-- 2 -->
<g id="2" class="node"><title>2</title>
<g id="a_2"><a xlink:title="Web002">
<polygon fill="none" stroke="black" points="304,-287.5 226,-287.5 226,-228.5 304,-228.5 304,-287.5"/>
<polygon fill="none" stroke="black" points="236,-258 236,-281 294,-281 294,-258 236,-258"/>
<text text-anchor="start" x="245.931" y="-263.9" font-family="Helvetica,sans-Serif" font-size="14.00">80/tcp</text>
<polygon fill="none" stroke="black" points="236,-234 236,-256 294,-256 294,-234 236,-234"/>
<text text-anchor="start" x="239.051" y="-239" font-family="Helvetica,sans-Serif" font-size="14.00">Web002</text>
</a>
</g>
</g>
<!-- 0&#45;&gt;2 -->
<g id="4" class="edge"><title>0&#45;&gt;2:p80tcp</title>
<path fill="none" stroke="blue" d="M217.859,-324.436C218.955,-307.18 221.428,-286.608 226.974,-276.401"/>
<polygon fill="blue" stroke="blue" points="229.364,-278.972 235,-270 225,-273.499 229.364,-278.972"/>
</g>
<!-- 3 -->
<g id="3" class="node"><title>3</title>
<g id="a_3"><a xlink:title="AppLB">
<path fill="azure" stroke="black" stroke-dasharray="1,5" d="M235.25,-179.5C235.25,-179.5 148.75,-179.5 148.75,-179.5 142.75,-179.5 136.75,-173.5 136.75,-167.5 136.75,-167.5 136.75,-132.5 136.75,-132.5 136.75,-126.5 142.75,-120.5 148.75,-120.5 148.75,-120.5 235.25,-120.5 235.25,-120.5 241.25,-120.5 247.25,-126.5 247.25,-132.5 247.25,-132.5 247.25,-167.5 247.25,-167.5 247.25,-173.5 241.25,-179.5 235.25,-179.5"/>
<polygon fill="none" stroke="black" points="147,-150 147,-173 192,-173 192,-150 147,-150"/>
<text text-anchor="start" x="150.431" y="-155.9" font-family="Helvetica,sans-Serif" font-size="14.00">80/tcp</text>
<polygon fill="none" stroke="black" points="194,-150 194,-173 238,-173 238,-150 194,-150"/>
<text text-anchor="start" x="196.931" y="-155.9" font-family="Helvetica,sans-Serif" font-size="14.00">25/tcp</text>
<polygon fill="none" stroke="black" points="147,-126 147,-148 238,-148 238,-126 147,-126"/>
<text text-anchor="start" x="171.483" y="-131" font-family="Helvetica,sans-Serif" font-size="14.00">AppLB</text>
</a>
</g>
</g>
<!-- 1&#45;&gt;3 -->
<g id="5" class="edge"><title>1&#45;&gt;3:p80tcp</title>
<path fill="none" stroke="blue" d="M169,-228.191C169,-215.217 169,-199.442 169,-184.321"/>
<polygon fill="blue" stroke="blue" points="172.5,-184 169,-174 165.5,-184 172.5,-184"/>
</g>
<!-- 2&#45;&gt;3 -->
<g id="6" class="edge"><title>2&#45;&gt;3:p80tcp</title>
<path fill="none" stroke="blue" d="M229.526,-228.441C209.443,-212.036 186.215,-192.601 175.292,-181.792"/>
<polygon fill="blue" stroke="blue" points="178.006,-179.581 169,-174 172.559,-183.979 178.006,-179.581"/>
</g>
<!-- 4 -->
<g id="4" class="node"><title>4</title>
<g id="a_4"><a xlink:title="App001">
<polygon fill="none" stroke="black" points="158.25,-83.5 47.75,-83.5 47.75,-24.5 158.25,-24.5 158.25,-83.5"/>
<polygon fill="none" stroke="black" points="58,-54 58,-77 103,-77 103,-54 58,-54"/>
<text text-anchor="start" x="61.4312" y="-59.9" font-family="Helvetica,sans-Serif" font-size="14.00">80/tcp</text>
<polygon fill="none" stroke="black" points="105,-54 105,-77 149,-77 149,-54 105,-54"/>
<text text-anchor="start" x="107.931" y="-59.9" font-family="Helvetica,sans-Serif" font-size="14.00">25/tcp</text>
<polygon fill="none" stroke="black" points="58,-30 58,-52 149,-52 149,-30 58,-30"/>
<text text-anchor="start" x="79.3657" y="-35" font-family="Helvetica,sans-Serif" font-size="14.00">App001</text>
</a>
</g>
</g>
<!-- 3&#45;&gt;4 -->
<g id="8" class="edge"><title>3&#45;&gt;4:p80tcp</title>
<path fill="none" stroke="blue" d="M136.656,-135.843C111.746,-126.708 86.6624,-111.768 81.1255,-87.9578"/>
<polygon fill="blue" stroke="blue" points="84.6011,-87.5436 80,-78 77.6454,-88.3299 84.6011,-87.5436"/>
</g>
<!-- 5 -->
<g id="5" class="node"><title>5</title>
<g id="a_5"><a xlink:title="App002">
<polygon fill="none" stroke="black" points="287.25,-83.5 176.75,-83.5 176.75,-24.5 287.25,-24.5 287.25,-83.5"/>
<polygon fill="none" stroke="black" points="187,-54 187,-77 232,-77 232,-54 187,-54"/>
<text text-anchor="start" x="190.431" y="-59.9" font-family="Helvetica,sans-Serif" font-size="14.00">80/tcp</text>
<polygon fill="none" stroke="black" points="234,-54 234,-77 278,-77 278,-54 234,-54"/>
<text text-anchor="start" x="236.931" y="-59.9" font-family="Helvetica,sans-Serif" font-size="14.00">25/tcp</text>
<polygon fill="none" stroke="black" points="187,-30 187,-52 278,-52 278,-30 187,-30"/>
<text text-anchor="start" x="208.366" y="-35" font-family="Helvetica,sans-Serif" font-size="14.00">App002</text>
</a>
</g>
</g>
<!-- 3&#45;&gt;5 -->
<g id="10" class="edge"><title>3&#45;&gt;5:p80tcp</title>
<path fill="none" stroke="blue" d="M202.085,-120.353C204.888,-110.559 207.452,-99.2566 208.5,-88.1258"/>
<polygon fill="blue" stroke="blue" points="212.003,-88.1604 209,-78 205.011,-87.8154 212.003,-88.1604"/>
</g>
<!-- 6 -->
<g id="6" class="node"><title>6</title>
<g id="a_6"><a xlink:title="Browser">
<polygon fill="none" stroke="black" points="279,-460 203,-460 203,-424 279,-424 279,-460"/>
<text text-anchor="start" x="215.328" y="-435.9" font-family="Helvetica,sans-Serif" font-size="14.00">Browser</text>
</a>
</g>
</g>
<!-- 6&#45;&gt;0 -->
<g id="1" class="edge"><title>6&#45;&gt;0:p443tcp</title>
<path fill="none" stroke="black" d="M241,-423.887C241,-413.889 241,-400.769 241,-388.049"/>
<polygon fill="black" stroke="black" points="244.5,-388 241,-378 237.5,-388 244.5,-388"/>
</g>
<!-- 7 -->
<g id="7" class="node"><title>7</title>
<g id="a_7"><a xlink:title="Mail Server">
<polygon fill="none" stroke="black" points="111.25,-276 16.75,-276 16.75,-240 111.25,-240 111.25,-276"/>
<text text-anchor="start" x="29.1035" y="-251.9" font-family="Helvetica,sans-Serif" font-size="14.00">Mail Server</text>
</a>
</g>
</g>
<!-- 7&#45;&gt;3 -->
<g id="2" class="edge"><title>7&#45;&gt;3:p25tcp</title>
<path fill="none" stroke="green" d="M87.1237,-239.94C96.4894,-233.355 107.545,-225.983 118,-220 156.498,-197.969 207.301,-218.355 215.004,-183.979"/>
<polygon fill="green" stroke="green" points="218.489,-184.298 216,-174 211.524,-183.603 218.489,-184.298"/>
</g>
</g>
</svg>
